<?xml version="1.0" encoding="utf-8"?>
<!-- Generator: Adobe Illustrator 26.3.1, SVG Export Plug-In . SVG Version: 6.00 Build 0)  -->
<svg version="1.1" id="Layer_1" xmlns="http://www.w3.org/2000/svg" xmlns:xlink="http://www.w3.org/1999/xlink" x="0px" y="0px"
	 viewBox="0 0 200 200" style="enable-background:new 0 0 200 200;" xml:space="preserve">
<g id="Layer_5">
	<path d="M75.5,37.7c0.3-2.8,1.2-5.5,2.6-8c0.9-1.4,0.5-3.4-0.9-4.3s-3.4-0.5-4.3,0.9c-1.8,3.2-3.1,6.8-3.5,10.5
		c-0.2,1.7,0.9,3.1,2.6,3.4c0.2,0,0.3,0,0.5,0C74.1,40.5,75.5,39.2,75.5,37.7z"/>
	<path d="M56.2,55.8c-1.7-0.3-3.2,0.6-3.7,2.3c-0.9,3.4-3.5,6-6.9,6.9c-1.7,0.5-2.6,2-2.3,3.7l0,0c0.5,1.7,2,2.6,3.7,2.3
		c5.7-1.5,10-5.8,11.5-11.5C58.9,58,57.9,56.3,56.2,55.8z"/>
	<path d="M83.9,65.2c-3.4-0.9-6-3.5-6.9-6.9c-0.5-1.7-2-2.6-3.7-2.3c-1.7,0.5-2.6,2-2.3,3.7c1.1,4.2,3.5,7.7,7.2,9.8
		c2.3,1.2,7.1,3.2,8-0.6C86.7,67.2,85.6,65.5,83.9,65.2L83.9,65.2z"/>
	<path d="M108.5,65.2c-3.4-0.9-6-3.5-6.9-6.9c-0.5-1.7-2-2.6-3.7-2.3c-1.7,0.5-2.6,2-2.3,3.7c0.9,4,3.5,7.5,6.9,9.7
		c2.3,1.4,7.2,3.5,8.2-0.5C111.3,67.2,110.2,65.5,108.5,65.2L108.5,65.2z"/>
	<path d="M8.7,86.6h126.1c3.8-2.9,8.3-4.8,13.1-5.5c-2.3-5.4-5.1-10.6-8.5-15.5c-4.3-5.8-10.8-8.9-16.9-12
		c-8-3.8-14.9-7.2-16.3-15.5c-2-10.9-14-18.1-23.1-22.8c-2.5-1.1-4.6-2.5-7.2-2.5c-4.3,0-7.2,2.6-9.5,4.8c-3.2,3.1-7.4,3.5-10.8,5.8
		c-2.5,1.7-4.2,4.2-5.1,7.1c-0.6,2.2-0.5,4.6-1.1,6.8c-0.6,1.8-1.5,3.5-2.6,5.1c-2,2.6-5.4,3.8-7.7,6.2c-1.8,2-3.4,4.2-4.3,6.8
		c-1.4,3.1-5.1,4.9-9.1,7.1L25,62.8C14.3,67.5,10.3,75.1,8.7,80.5h-4c-1.7,0-3.1,1.4-3.1,3.1c0,0.2,0,0.5,0,0.6
		c6.9,30.1,27.1,53.4,52.3,62.6c0-0.3,0-0.5,0-0.8c0-1.8,0.2-3.8,0.5-5.7C33,131.8,15.6,112.1,8.7,86.6z M27.6,68l0.9-0.5
		c4.5-2.3,9.5-4.9,11.8-9.8c2.6-5.5,8-7.1,11.4-11.7c1.5-2,2.8-4.3,3.5-6.8c0.6-2.2,0.5-4.6,1.1-6.8c0.5-1.5,1.4-2.8,2.6-3.7
		c1.1-0.6,2.3-1.2,3.5-1.5c2.9-1.1,5.7-2.8,8-4.9c2.3-2.2,3.7-3.4,5.7-3.1c6.5,2.6,22.1,10.9,23.8,20.1c2,11.4,11.4,16,19.7,20
		c5.8,2.8,11.2,5.5,14.6,10c2.5,3.5,4.6,7.4,6.5,11.2H15.2C16.7,76.6,20.1,71.5,27.6,68z"/>
	<path d="M198.1,128.3c-1.1-3.5-4.2-6.5-9.1-8.6c-0.2,0-0.3-0.2-0.5-0.2c-3.5-0.8-7.1-1.8-10.5-3.1c0.2-0.2,0.2-0.3,0.3-0.5
		c1.1-1.8,2.5-3.4,4-4.9c3.2-2,14-9.4,15.7-20.1c0.3-1.8,0.2-3.7-0.3-5.5c-1.5-4.8-6.5-8-12.5-8c-2.2,0-4.2,0.5-6.2,1.1
		c-2.8,1.2-5.4,2.8-7.8,4.8c-1.2,0.9-2.6,1.8-3.8,2.8c-1.1,0.6-2.2,1.4-3.4,2c-2.2-0.5-4.3-0.8-6.5-0.9c-5.1-0.5-10,0.2-14.8,1.7
		c-4,1.5-6.2,4.5-6,7.7c0.3,2.6,1.8,4.9,4.3,6.2c-1.7,1.1-3.5,2.3-5.2,3.4c-0.5-0.6-0.9-1.2-1.4-1.7c-6.8-7.1-18.1-12-28.6-6.9
		c-2.5,1.2-4.6,3.1-6,5.4c-2,2.9-2.5,6.5-1.4,9.8c1.2,3.4,4.3,5.8,9.2,7.5c0.2,0,0.2,0,0.3,0.2c1.5,0.3,3.1,0.8,4.5,1.1
		c-2,1.1-4.2,1.8-6.5,2.2c-2.8,0.3-26,3.5-27.1,3.7c-12.2,2.2-19.1,8.9-18.8,18.8c0.3,11.4,11.8,18.8,22.5,20.9
		c2.6,0.5,5.4,0.8,8.2,0.8c0.8,0,1.5,0,2.3-0.2c0.2,4.5,2.2,8.8,5.5,11.8c4,3.7,9.4,5.8,14.9,5.8c0.9,0,2,0,2.9-0.2
		c3.4-0.5,6.8-1.5,10-3.1c0.3-0.2,0.6-0.2,0.8-0.5c4.6-2.2,8.9-5.1,12.6-8.6c8.5-8,13.5-20.5,18-31.5c0.5-1.2,0.9-2.3,1.4-3.5
		c0.8-0.5,1.7-0.9,2.5-1.4c0.2,0,0.3-0.2,0.3-0.3c5.1,5.2,12.2,9.2,19.7,9.2c2.8,0,5.5-0.6,8.2-1.7c2.6-1.1,4.9-2.9,6.5-5.4
		C198.4,135.5,199.1,131.8,198.1,128.3z M109.9,107.8c-0.6,2-2,3.8-3.8,4.8c-0.8-0.5-1.5-1.2-1.8-2.2c-0.3-1.5,0-3.2,0.9-4.6
		c0.8-1.2,2-2.3,3.4-2.9C109.6,104.3,110.1,106.1,109.9,107.8z M96.7,160.9c-4.3,0.6-8.6,0.6-12.9-0.2c-6.6-1.4-17.2-6.6-17.5-15.1
		c-0.2-6.6,4.3-10.9,13.5-12.5c0,0,1.7-0.3,4.2-0.6c0.5,11.4,11.1,22.5,16.8,27.5C99.3,160.6,98.1,160.7,96.7,160.9z M145.8,153.4
		c-1.7-0.5-3.4-1.2-4.6-2.5c-1.2-1.1-3.2-1.1-4.3,0.3c-1.1,1.2-1.1,3.2,0.3,4.3l0,0c1.7,1.5,3.7,2.6,5.7,3.4
		c-0.6,0.9-1.1,1.8-1.7,2.6c-3.2,0.6-6.6-0.5-9.1-2.6c-1.2-1.1-3.2-1.1-4.3,0.3c-1.1,1.2-1.1,3.2,0.3,4.3c2.3,2.2,5.2,3.5,8.3,4
		c-0.2,0.3-0.5,0.5-0.6,0.6c-3.2,3.1-6.8,5.5-10.8,7.5c-4.8-0.2-8.9-2.8-11.2-6.9c-0.9-1.5-2.8-2-4.2-1.1c-1.5,0.9-2,2.8-1.1,4.2
		l0,0c1.5,2.8,3.8,5.1,6.5,6.8c-4.3,0.3-8.6-1.2-11.8-4c-2.3-2-3.5-4.9-3.5-8c16.9-3.1,32.6-15.4,34.6-17.1l0,0
		c4.5-3.7,9.8-5.8,15.5-8c0.5-0.2,1.1-0.5,1.5-0.6C149.4,145.2,147.8,149.4,145.8,153.4z M160.7,129.5c-2.3-0.8-11.5-4.3-14.3-10.8
		c-0.6-1.5-2.5-2.3-4-1.5c-1.5,0.6-2.3,2.5-1.5,4l0,0c2.6,6,8.8,9.8,13.2,12.2c-2.2,0.9-4.3,1.8-6.6,2.6c-3.7,1.4-7.1,2.8-10.5,4.5
		c-2.2-1.1-5.5-3.2-6.3-5.8c-0.5-1.7-2.2-2.6-3.8-2.2c-1.7,0.5-2.6,2.2-2.2,3.8c1.1,3.4,3.4,6.2,6.3,8c-0.3,0.3-0.8,0.6-1.1,0.9
		c0,0-2.2,1.7-5.5,4c-5.5-3.1-10.2-7.8-13.1-13.5c-0.8-1.5-2.6-2.2-4.2-1.5c-1.5,0.6-2.2,2.6-1.5,4.2c2.9,6,7.4,10.9,12.9,14.6
		c-3.5,2-7.2,3.8-11.1,5.4c-5.4-4.2-17.7-16-17.5-26.1c6.9-0.9,15.1-2,16.6-2.3c4.8-0.8,9.4-2.8,13.4-5.5c0.2,0.2,0.3,0.2,0.5,0.3
		c1.2,1.2,3.1,1.2,4.3,0s1.2-3.1,0.2-4.3c-2-2.2-7.8-4-12.3-5.1c1.7-1.7,2.9-3.8,3.2-6.3c0.3-2.5-0.2-5.1-1.2-7.4
		c5.7,0.2,11.2,2.8,15.1,6.9c1.4,1.5,2.3,3.4,2.9,5.4c0.3,1.7,2,2.8,3.7,2.5s2.8-2,2.5-3.7l0,0c0-0.3-0.2-0.8-0.3-1.1
		c3.7-2.5,7.2-4.8,10.6-6.9l4.2,0.6c0.2,0,0.3,0,0.5,0c1.7,0,3.1-1.4,3.1-3.1c0-1.5-1.1-2.8-2.6-3.1l-8.6-1.4
		c-2-0.6-2.6-1.5-2.6-1.8c0-0.2,0.5-0.9,2.2-1.5c3.8-1.2,8-1.7,12.2-1.4c3.8,0.3,7.5,1.1,11.1,2.6c1.5,0.6,3.4-0.2,4-1.7
		c0.5-1.1,0.2-2.5-0.6-3.4c1.2-0.8,2.5-1.7,3.5-2.5c1.8-1.5,4-2.9,6.3-3.8c1.2-0.5,2.6-0.8,3.8-0.8c2.5,0,5.8,0.9,6.6,3.7
		c0.3,0.9,0.3,1.8,0.2,2.6c-1.1,6.5-7.4,12.5-12.9,16c-0.2,0.2-0.3,0.2-0.5,0.3c-1.8-1.1-3.5-2.5-4.8-4.3c-0.9-1.4-2.9-1.8-4.3-0.8
		c-1.4,0.9-1.8,2.9-0.8,4.3c1.5,2.2,3.4,4,5.7,5.5c-0.5,0.6-0.8,1.1-1.2,1.7c-0.6,0.9-1.2,1.7-1.7,2.3c-1.5,2-2.9,4-4.2,6
		c-0.2,0.2-0.3,0.3-0.3,0.6c-3.5-1.2-6.6-3.8-8.5-7.1c-0.8-1.5-2.6-2.2-4.2-1.4c-1.5,0.8-2.2,2.6-1.4,4.2c2.3,4.3,6,7.7,10.5,9.5
		C162.5,127.5,161.6,128.6,160.7,129.5z M178.7,130.9c-0.6,2.8-0.3,5.5,0.9,8.2c-4.9-0.9-9.4-3.4-12.9-6.9c2.2-2.5,4.2-5.2,5.8-8
		c0.6-0.9,1.2-1.8,1.8-2.8c2.6,1.2,5.5,2.3,8.3,3.1C180.7,126.1,179.3,128.4,178.7,130.9z M191.1,135.2c-0.9,1.4-2.2,2.3-3.7,2.9
		c-0.5,0.2-0.8,0.3-1.2,0.5c-1.2-1.8-1.7-4.2-1.4-6.3c0.5-2,2.2-3.8,5.1-5.2c1.2,0.8,2,1.8,2.6,3.1
		C192.7,131.8,192.2,133.8,191.1,135.2z"/>
</g>
</svg>
