<?xml version="1.0" encoding="utf-8"?>
<!-- Generator: Adobe Illustrator 26.3.1, SVG Export Plug-In . SVG Version: 6.00 Build 0)  -->
<svg version="1.1" id="Layer_1" xmlns="http://www.w3.org/2000/svg" xmlns:xlink="http://www.w3.org/1999/xlink" x="0px" y="0px"
	 viewBox="0 0 200 200" style="enable-background:new 0 0 200 200;" xml:space="preserve">
<g id="Layer_1_00000002354162714774240920000013834075738727223958_">
	<g>
		<path d="M73.2,118.1c0.8-0.8,0.4-1.7,0.4-2.6c0-30.5,0-61,0-91.4c0-1.3-0.1-2.7,0.3-4c1.2-4.5,5.4-7.3,10.1-6.7
			c4.5,0.5,7.9,4.3,7.9,9c0,18.5,0,36.9,0.1,55.4c0,1.2-0.7,3.2,1.3,3.2s1.4-2,1.4-3.1c0-22,0-44,0-66c0-6.5,4.2-10.8,10.2-10.6
			c5,0.1,8.9,3.7,9.5,8.7c0.1,1,0.1,2,0.1,2.9c0,21.6,0,43.3,0,64.9c0,1.2-0.8,3.1,1.4,3.1c1.9,0,1.3-1.9,1.3-3
			c0-18.9,0-37.8,0-56.7c0-7,6.4-11.6,13.1-9.4c4.1,1.3,6.7,5,6.7,9.7c0,11.7,0,23.3,0,35c0,8.4,0,16.7,0,25.1c0,0.6,0,1.1,0,1.7
			c0.1,0.7,0.5,1.1,1.3,1.1c0.7,0,1.2-0.4,1.3-1.1c0.1-0.6,0.1-1.3,0.1-1.9c0-13.3,0-26.5,0-39.8c0-6.8,5.9-11.1,12.2-9
			c3.8,1.2,6.1,4.6,6.2,9.1c0,7.9,0,15.9,0,23.8c0,14.7,0,29.5,0.1,44.2c0.1,19.7-3.2,38.8-9.9,57.4c-0.5,1.3-0.7,2.5-0.7,3.9
			c0,7.7,0,15.5,0,23.2c0,0.4,0,0.8,0,1.3c0,1.2-0.1,2.4-1.7,2.4c-1.5,0-1.7-1.1-1.7-2.4c0-4.4-0.2-8.7,0.1-13.1
			c0.1-2.2-0.7-3-2.7-3.5c-7.2-2-14-5-20.5-8.7c-1.3-0.7-2-1.2-2.6,0.8c-0.8,2.9-3,4.7-5.8,5.7c-1,0.3-1.3,0.8-1.3,1.8
			c-0.2,3.4,0,6.7,2,9.7c0.7,1.1,1.1,2.4,1.5,3.7c0.6,2.2-0.2,4.5-2,5.8c-1.9,1.3-4.3,1.3-6.1,0c-1.8-1.3-2.7-3.5-2.1-5.8
			c0.5-2,1.3-3.9,2.4-5.6c1.7-2.7,0.8-5.6,1-8.4c0.1-0.8-0.6-0.8-1.1-1c-3.3-1-5.6-3.2-6.6-6.5c-0.4-1.2-0.8-1-1.6-0.5
			c-4.7,2.5-9.7,4.5-14.8,6c-0.8,0.3-1.2,0.5-1.1,1.5c0.1,6.1,0.1,12.2,0.1,18.3c0,1.2-0.3,2.2-1.7,2.2c-1.4,0-1.7-1-1.7-2.2
			c0-5.3,0.1-10.5,0-15.8c-0.1-4.2-1.3-8-3.9-11.3c-5.8-7.4-11.4-14.9-17.3-22.3c-3.4-4.3-5.7-9-7-14.2
			c-3.9-15.8-7.8-31.6-11.8-47.4c-0.6-2.5-0.4-3,2.1-3.9c5-1.8,9.6-0.9,13.7,2.2c5.1,3.8,8,9.1,10.1,14.9c2.2,6.1,4.3,12.3,6.5,18.4
			C72.4,116.7,72.4,117.5,73.2,118.1z M143.5,155.1c1.1,0.4,2,0.7,2.9,1.1c1.1,0.5,1.5,0.2,1.9-1c3.1-10.8,5.3-21.9,5.9-33.1
			c1.1-22,0.1-44.1,0.4-66.2c0-1.2-0.5-1.6-1.5-1.9c-2.6-0.7-5.2-0.8-7.9-0.3c-1.7,0.3-2.4,1-2.4,2.9c0.1,8.6,0.1,17.3,0,25.9
			c0,3.3-2.3,5.4-5.4,4.9c-2.4-0.3-3.9-2.3-3.9-5.2c0-9.7,0-19.4,0-29.1c0-1.5-0.5-2.1-1.9-2.4c-3-0.6-6-0.7-9-0.2
			c-1.8,0.3-2.4,1-2.4,2.9c0.1,8.4,0.1,16.9,0,25.3c0,3.2-1.6,5.1-4.2,5.4c-3.1,0.3-5.1-1.7-5.1-5.2c0-10.7,0-21.4,0-32
			c0-1.5-0.5-2.1-1.9-2.4c-3.2-0.7-6.3-0.5-9.4,0.3c-1.5,0.4-2,1-2,2.6c0.1,6,0,11.9,0,17.9c0,4.8,0.1,9.6,0,14.3
			c-0.1,3.7-3.7,5.9-6.9,4.1c-1.9-1-2.4-2.8-2.4-4.8c0-6.9,0-13.8,0-20.7c0-6-0.5-6.4-6.7-6.2c-0.8,0-1.7,0.2-2.5,0.2
			c-1.9,0.2-2.5,1.1-2.5,3c0.1,20.4,0,40.9,0,61.3c0,2.6-1.4,4.6-3.3,5c-2,0.4-3.3-0.8-4.3-3.7c-2.3-6.6-4.6-13.3-7-19.8
			c-1.8-4.9-4.4-9.3-8.5-12.6c-2.6-2.1-5.5-3-8.8-2.6c-1.5,0.2-2.2,0.6-1.7,2.4c1.1,3.8,2.1,7.7,2.9,11.6c0.3,1.4,0.9,1.6,2.2,1.2
			c1.8-0.6,3.5-1.4,5.1-2.5c0.9-0.6,1.9-0.9,2.6,0.1c0.8,1.1,0.2,2-0.8,2.6c-0.4,0.3-0.8,0.5-1.2,0.8c-1.2,0.8-0.2,1.7,0,2.4
			c0.3,1.1,0.9,0.4,1.4,0.1c1-0.5,1.8-0.3,2.3,0.6c0.6,1,0.1,1.8-0.8,2.3c-2,1.4-4.1,2.6-6.4,3c-1.5,0.3-1.5,1-1.2,2.2
			c0.4,1.5,1.1,1.2,2.2,0.9c1.8-0.5,3.4-1.3,4.9-2.4c1-0.7,2-1.1,2.8,0.1c0.9,1.3,0,2.1-1,2.7c-1.8,1.2-3.7,2.3-5.9,2.8
			c-1.4,0.3-1.8,0.8-1.4,2.3c1.3,5,2.5,10.1,3.8,15.1c1.1,4.4,3,8.3,5.8,11.8c2.6,3.3,5.2,6.7,7.7,10c2.4,3.2,2.4,3.2,6.2,1.6
			c0.1,0,0.1-0.2,0.2-0.3c-2.8-4.1-2.9-6-0.3-9.9c0.6-0.9,0-1.2-0.4-1.7c-2.5-3.5-1.7-8,2-10.2c1-0.6,1.3-1,1-2.2
			c-1-4.4,1.6-8,6.1-8.6c1-0.1,1.4-0.3,1.5-1.4c0.5-3.2,2.6-5.4,5.7-5.9c1.2-0.2,1.6-0.6,1.7-1.8c0.3-3,2.4-5.3,5.2-5.9
			c1.3-0.2,1.6-0.7,1.8-2c0.5-4.8,4.7-7.4,9.3-5.8c0.6,0.2,1.2,0.2,1.8,0c4.9-1.6,9,1.1,9.4,6.1c0.1,0.9,0.2,1.3,1.2,1.5
			c3.6,0.8,5.4,2.7,5.9,6.4c0.1,0.7,0.1,1.1,1,1.2c3.7,0.5,5.8,2.6,6.4,6.2c0.1,0.9,0.6,1,1.4,1.2c4.8,0.8,7.1,4.2,6.1,8.9
			c-0.2,0.8-0.2,1.2,0.6,1.7c4.4,2.8,5.1,6.4,2.3,10.7c-0.4,0.6-0.5,0.9-0.1,1.6C147,148.8,146.9,151.2,143.5,155.1z M78,165
			c0.5-0.2,0.9-0.3,1.4-0.5c10-3.8,19-9.4,27.2-16.2c1.2-1,2.3-1.4,3.7-0.3c2.5,1.9,5,3.8,7.6,5.7c0.9,0.7,1.7,1.5,0.9,2.6
			c-0.9,1.3-1.9,0.8-2.9,0.1c-1.9-1.4-3.9-2.7-5.7-4.3c-1.1-0.9-1.9-0.9-3,0c-7.3,5.9-15.2,10.8-23.9,14.5c-3.4,1.4-3.3,1.4-2,4.8
			c0.4,1.1,0.8,1.3,2,1c8.6-2.7,16.6-6.4,23.7-12c2.5-2,2.5-2,5-0.1c8.6,6.3,17.9,11.1,27.9,14.5c4.3,1.5,4.3,1.4,4.3-3.1
			c0-1.4-0.4-2.1-1.8-2.5c-2.9-0.8-5.8-1.7-8.5-2.9c-1-0.5-1.6-1.2-1.1-2.3c0.5-1,1.4-1.1,2.3-0.7c1.6,0.6,3.1,1.2,4.7,1.7
			c5.2,1.7,5.2,1.7,6.8-3.5c0.3-1.1,0.3-1.6-0.9-2c-13.1-4.4-24.8-11.3-35.6-20c-0.8-0.6-1.3-1-2.3-0.2c-10.1,8.3-21.2,15-33.5,19.5
			c-0.9,0.3-1.2,0.6-0.5,1.4c1.1,1.4,2.2,2.9,3.4,4.3C77.2,164.8,77.5,165.2,78,165z M111.1,21.7c0-3.5,0.1-7,0-10.5
			c-0.1-3.9-2.8-6.5-6.5-6.6c-3.8-0.1-6.6,2.6-6.7,6.6c-0.1,7,0,14,0,21.1c0,1.3,0.4,1.6,1.6,1.2c3.4-0.9,6.8-1,10.2-0.1
			c1.3,0.3,1.4-0.1,1.4-1.2C111.1,28.7,111.1,25.2,111.1,21.7z M88.2,49.5c0.1-0.2,0.2-0.3,0.2-0.4c0-9.1,0.1-18.2,0-27.3
			c0-3-2.8-5.3-5.8-5.2c-3,0.1-5.6,2.3-5.6,5.4c-0.1,8.7,0,17.3-0.1,26c0,1.1,0.4,1.4,1.4,1.1C81.6,48.4,85,48.6,88.2,49.5z
			 M109.4,121.1c-3.2,5-7.3,8.9-11.6,12.5c-3,2.5-4.6,5.7-4.4,9.8c0.1,1.6,0.5,1.8,1.8,0.9c3.8-2.6,7.6-5.3,11.1-8.3
			c1.7-1.4,2.9-1.5,4.5,0c4,3.5,8.3,6.5,12.7,9.3c1,0.6,1.4,0.6,1.6-0.7c0.7-3.8-0.4-7.2-3.1-9.8
			C117.6,130.5,112.8,126.6,109.4,121.1z M120.4,26.3L120.4,26.3c0,2,0,4.1,0,6.1c0,1,0.3,1.4,1.3,1.1c3.5-1,7.1-1,10.6,0
			c0.9,0.3,1.2,0,1.2-1c0-4.1,0.1-8.1-0.1-12.2c-0.1-3.5-3.1-5.8-6.8-5.8c-3.5,0.1-6.1,2.6-6.3,6C120.4,22.5,120.4,24.4,120.4,26.3z
			 M154.5,45.3L154.5,45.3c0-1.6,0.2-3.2,0-4.8c-0.3-3.2-2.6-5.2-5.8-5.1c-3.2,0-5.6,2.1-5.8,5.2c-0.2,3.1,0,6.2-0.1,9.3
			c0,0.9,0.2,1.3,1.2,1c1.8-0.5,3.6-0.6,5.4-0.6c1.7,0,3.9,1.5,4.8,0.2C155.2,49.3,154.5,47,154.5,45.3z M115.1,123.1
			c0.8-2.1,1.4-3.8,2.1-5.6c0.2-0.5,0.4-1-0.1-1.5c-2.8-3.2-5.4-6.6-7.8-10.4c-2.2,3.6-4.6,6.8-7.2,9.8c-0.3,0.4-0.6,0.8-0.3,1.3
			c0.8,1.9,1.5,3.8,2.3,5.9c1.5-1.6,2.5-3.2,3.3-4.9c0.4-0.8,0.9-1.7,2-1.6c1,0,1.4,0.8,1.8,1.6
			C112.3,119.4,113.4,121.3,115.1,123.1z M109.6,173.6c0.4,0,0.8,0,1.2-0.1c2.6-0.7,4.2-2.4,4.9-5c0.6-2.4-1.6-2.7-2.8-3.5
			c-1.2-0.8-2.2-2.6-3.8-2.1c-1.4,0.4-2.5,1.7-3.8,2.6c-2.4,1.7-2.7,2.8-1,5.3C105.5,172.7,107.3,173.6,109.6,173.6z M132.7,140.7
			c-0.6,0-1.1,0.1-1.7,0c-1.8-0.3-2.5,0.3-2.3,2.2c0.1,1.2-0.3,2.5-0.6,3.7c-0.1,0.7-0.1,1.2,0.6,1.6c2,0.9,4.2,3.3,5.8,2.5
			c1.7-0.8,1.7-3.9,1.9-6.2C136.8,140.7,136.8,140.7,132.7,140.7z M131.6,137.4c0.8,0,1.7-0.1,2.5,0c1.5,0.1,1.8-0.3,1.2-1.8
			c-1-2.4-2.4-4.6-4.2-6.5c-1.9-2.1-1.9-2.1-3.8-0.1c-0.9,1-2.5,1.8-2.6,3.1c-0.1,0.9,1.4,1.8,1.8,2.9c0.7,2.2,2.3,2.5,4.2,2.3
			C131.1,137.3,131.4,137.4,131.6,137.4z M83,137.4c2.5,0,4.8,0,7.1,0c0.5,0,0.9-0.2,1.2-0.7c3.2-4.4,3.2-4.4-0.8-8.3
			c-0.1-0.1-0.3-0.3-0.4-0.5c-0.5-0.6-0.9-0.5-1.4,0C86.1,130.6,84,133.5,83,137.4z M82.3,142.7c0.1,2.5,0.5,4.8,1.3,7
			c0.1,0.3,0.1,1.2,0.9,0.8c2-1,4.1-1.9,5.8-3.3c1-0.8-0.3-2.2-0.2-3.4c0.1-0.6-0.1-1.3,0-1.9c0.1-0.9-0.3-1.2-1.2-1.2
			c-1.5,0-3.1,0.1-4.6,0C82.5,140.5,82.1,141.4,82.3,142.7z M104.8,36c-1.3,0.2-2.6,0.3-3.9,0.5c-3.1,0.5-3.1,0.6-3,3.8
			c0,1.3,0.4,1.6,1.6,1.2c2.9-0.8,5.9-1,8.9-0.5c2.9,0.5,2.8,0.5,2.7-2.5c0-1-0.3-1.5-1.3-1.8C108.1,36.4,106.5,36.1,104.8,36z
			 M98.8,119.1c-0.2,0.2-0.5,0.4-0.7,0.6c-0.8,0.7-1.5,1.4-2.3,2.2c-4.1,3.8-4.1,3.8,0.3,7.5c0.6,0.6,1,0.4,1.6,0
			c4.2-3,4.3-3.5,2.5-8.1c-0.2-0.5-0.4-1-0.6-1.6C99.3,119.4,99.2,119.1,98.8,119.1z M120.2,119.2c-0.8,2-1.5,3.8-2.2,5.7
			c-0.2,0.6-0.3,1.1,0.2,1.7c2.8,3.4,3.5,3.5,6.4,0.5c0.4-0.4,0.8-0.8,1.2-1.2c0.7-0.6,0.7-1.1-0.1-1.7
			C123.9,122.6,122.2,121,120.2,119.2z M127.8,43.9c-2.5,0-4.5,0.2-6.5,0.8c-1.4,0.4-0.9,1.6-0.8,2.5c0.1,1.1,1.1,0.3,1.5,0.3
			c3.4-0.7,6.8-0.6,10.2,0.1c0.4,0.1,1.2,0.8,1.3-0.3s0.4-2.4-1.4-2.7C130.5,44.4,128.9,44.1,127.8,43.9z M125.9,38.4
			c0.5-2.1-0.4-2.6-2.3-2c-0.4,0.1-0.8,0.1-1.2,0.3c-1.9,0.5-2.7,1.8-2,3.9c0.5,1.6,1.7,0.1,2.6,0.2c0.3,0,0.6-0.1,0.8-0.1
			C125.6,40.9,126.4,40.2,125.9,38.4z M142.8,149c0-0.6-0.4-1.4-1-2.1c-0.5-0.5-1.1-1-1.8-0.9c-0.8,0.1-0.5,1-0.7,1.6
			c-0.3,1.1-0.6,2.1-0.9,3.2c-0.2,0.7-1,1.5-0.3,2s1.8,0.3,2.6-0.1C142.2,152,142.9,150.9,142.8,149z M75.9,149.4
			c0,1.6,1.1,3.1,2.4,3.5c0.8,0.2,1.6,0,2.2-0.5s0-1-0.1-1.5c-0.3-1.1-0.6-2.2-0.9-3.2c-0.2-0.6-0.1-1.5-0.6-1.7
			c-0.7-0.2-1.4,0.4-2,1C76.2,147.7,76,148.5,75.9,149.4z M123.4,113.8c0-2.4-2.1-4-4.4-3.5c-1.2,0.3-1.9,0.7-0.7,1.9
			c0.9,0.9,1.7,1.9,2.5,2.8c0.5,0.5,0.9,1.5,1.6,1.2C123.3,115.8,123.4,114.7,123.4,113.8z M95.3,113.9c0.1,0.7,0.1,1.7,0.9,2.2
			c0.9,0.5,1.2-0.6,1.7-1.1c0.7-0.6,1.3-1.3,1.8-2c0.4-0.7,1.8-1.1,1.1-2.1c-0.7-0.9-1.9-0.8-2.9-0.5
			C96.3,110.8,95.5,112.1,95.3,113.9z M138.6,128.8c-0.1-2.2-2.1-3.9-4.3-3.5c-1,0.2-1.6,0.5-0.6,1.6c1.1,1.2,2,2.5,2.9,3.8
			c0.7,1,1.1,0.7,1.6-0.1C138.5,130,138.6,129.4,138.6,128.8z M142.8,138.7c-0.1-1.6-0.9-2.7-2.4-3.4c-0.4-0.2-1-0.4-1.4,0
			c-0.3,0.3,0,0.8,0,1.2c0.2,1.3,0.5,2.6,0.7,3.9c0.1,0.6-0.3,1.5,0.3,1.7c0.8,0.3,1.4-0.5,1.9-1.1
			C142.6,140.4,142.9,139.6,142.8,138.7z M88,121.6c0,0.6,0,1.4,0.6,1.7c0.5,0.2,1-0.5,1.4-0.8c1.1-0.9,2.1-1.9,3.2-2.7
			c1.1-0.9,0.5-1.3-0.4-1.7C90.4,117.2,87.9,119.1,88,121.6z M81.5,131.7c1.2-1.8,2.3-3.6,3.8-5.1c0.8-0.8,0.1-1-0.5-1.2
			c-1.7-0.4-3.1,0.1-4,1.5C79.8,128.6,80,130.1,81.5,131.7z M130.9,121.6c0-2.5-2.5-4.4-4.8-3.6c-1,0.3-1.5,0.8-0.4,1.7
			c1.1,0.9,2.1,1.9,3.2,2.7c0.4,0.3,0.8,1,1.4,0.8C130.8,122.9,130.8,122.2,130.9,121.6z M78.9,135.2c-1.3,0.2-2.4,1.1-2.8,2.7
			c-0.4,1.7,0.5,3.5,1.8,4.1c0.9,0.4,0.9-0.1,1-0.7c0.1-1.7,0.3-3.5,0.9-5.2C80,135.5,80,135.1,78.9,135.2z M133.4,41.5
			c0-0.6,0.1-1.2,0.1-1.7c0-2.5-0.6-3.1-3.1-3.2c-0.5,0-0.9-0.1-1.1,0.6c-0.6,2.3,0.1,3.6,2.4,4.1C132.3,41.3,132.8,41.4,133.4,41.5
			z M109.7,188.3c-0.9,1.3-1.5,2.6-1.9,4c-0.3,0.9-0.1,1.8,0.9,2.4c0.7,0.4,1.3,0.4,2,0c0.9-0.6,1.1-1.4,0.9-2.4
			C111.2,190.9,110.6,189.5,109.7,188.3z M102.4,105.7c0.1,0.8,0.2,1.9,1,2.2c0.7,0.3,1-0.8,1.4-1.3c0.5-0.7,1-1.4,1.3-2.1
			s1.6-1.5,0.6-2.2c-0.9-0.7-2-0.1-2.9,0.6C102.9,103.5,102.5,104.6,102.4,105.7z M115.3,108.2c1.2-1.2,1.3-2.5,0.8-3.8
			s-1.6-2.1-3-2.3c-1-0.1-1.8,0.1-1,1.3C113.1,105,114,106.6,115.3,108.2z M49.7,101.2c-0.6,0.7-2.3-0.1-1.9,1.5
			c0.2,0.7-0.2,2.3,1.4,2c0.7-0.1,2.1,0.2,1.9-1.3C50.9,102.6,51,101.4,49.7,101.2z"/>
		<path d="M103.5,51.7c2.3,0,4.4,2.3,4.3,4.8c-0.1,2.4-2.3,4.6-4.5,4.4c-0.9,0-1.5-0.5-1.7-1.3c-0.2-0.9,0.2-1.5,1-1.9
			c0.8-0.3,1.8-0.3,1.8-1.4c0-1.2-1-1.2-1.7-1.5c-0.8-0.3-1.3-0.9-1.1-1.8C101.8,52.2,102.5,51.7,103.5,51.7z"/>
		<path d="M85.5,62.7c0,2.2-1.7,4.2-3.9,4.5c-1,0.1-1.9-0.1-2.2-1.1C79,65,79.6,64.3,80.6,64c0.8-0.2,1.6-0.4,1.5-1.4
			c0-1-0.8-1.1-1.6-1.4c-0.9-0.3-1.5-0.9-1.2-1.9s1.1-1.4,2.1-1.3C83.6,58.3,85.5,60.4,85.5,62.7z"/>
		<path d="M130.1,62.6c0,2.2-1.6,4.3-3.8,4.6c-1.1,0.2-2,0-2.4-1.2c-0.3-1.1,0.3-1.8,1.3-2c0.7-0.2,1.4-0.4,1.5-1.2
			c0.1-1-0.7-1.2-1.5-1.4c-1-0.3-1.6-1-1.3-2c0.3-1,1.1-1.3,2.2-1.2C128.3,58.4,130.1,60.4,130.1,62.6z"/>
		<path d="M107.8,70.7c0,2.2-1.8,4.2-3.9,4.5c-1,0.2-1.9-0.1-2.2-1.1c-0.4-1.1,0.2-1.8,1.2-2.1c0.8-0.2,1.6-0.4,1.5-1.4
			c0-1-0.9-1.1-1.6-1.3c-0.9-0.3-1.5-0.9-1.2-1.9s1.1-1.4,2.1-1.3C106,66.3,107.8,68.4,107.8,70.7z"/>
		<path d="M148.1,59.7c2.3,0,4.3,2.2,4.3,4.6s-2,4.6-4.3,4.6c-1,0-1.7-0.4-1.9-1.3c-0.2-1,0.3-1.6,1.2-1.9c0.8-0.2,1.6-0.4,1.6-1.4
			s-0.8-1.1-1.5-1.4c-0.9-0.3-1.5-0.9-1.3-1.9C146.5,60.1,147.2,59.7,148.1,59.7z"/>
		<path d="M127.8,163.4c-2.2-1.1-4.7-2.2-6.8-4c-0.6-0.5-0.5-1.3,0-1.9c0.5-0.6,1.1-0.9,1.8-0.5c2.1,1.1,4.2,2.2,6.2,3.4
			c0.6,0.4,0.9,1.1,0.6,1.8C129.3,162.9,128.8,163.3,127.8,163.4z"/>
	</g>
</g>
</svg>
