<?xml version="1.0" encoding="utf-8"?>
<!-- Generator: Adobe Illustrator 26.3.1, SVG Export Plug-In . SVG Version: 6.00 Build 0)  -->
<svg version="1.1" id="Layer_1" xmlns="http://www.w3.org/2000/svg" xmlns:xlink="http://www.w3.org/1999/xlink" x="0px" y="0px"
	 viewBox="0 0 200 200" style="enable-background:new 0 0 200 200;" xml:space="preserve">
<g id="Layer_3">
	<g>
		<path d="M168.2,79.9c-0.1,9.5-3,18-7.7,26.1c-0.4,0.6-1.2,1.4-0.8,2.1s1.5,0.2,2.2,0.1c4.9-0.3,9.6-1.5,14.2-3.2
			c5-1.8,6.3-1.1,7.5,4.1c0.5,2.3,0.7,4.5,0.7,6.8c0,2.9,1.3,3.7,4,2.8c0.1,0,0.2-0.1,0.3-0.1c3.6-1.4,3.6-1.4,5.9,1.8
			c5.9,8,3.7,21.8-4.4,27.5c-1.7,1.2-3.7,1.7-5.5,0.5c-9.7-6.2-20.7-9.2-31.6-12.7c-3.1-1-5.9-1-9-0.2c-11.3,2.8-22.7,2.5-34.1,0.6
			c-6.6-1.1-13.2-2.1-19.4-4.6c-4.7-1.9-8.4-4.9-10.7-9.5c-0.3-0.6-0.6-1.4-1.5-0.8c-3.2,2.6-6.4,5.1-7.5,9.4
			c-0.5,2.2-0.3,4.3,0.5,6.3c0.7,2-0.8,2.7-1.9,3.6c-1,0.8-1.7,0.1-2.6-0.5c-1.6-1-1.4-1.9-0.6-3.3c0.6-1,0.9-2.3,1.3-3.5
			c0.3-0.9,0.2-1.6-0.5-2.3s-1.4-0.3-2.2,0c-4.2,2.1-8.6,3.8-13.3,4.7c-2.4,0.4-4.8,0.6-7.2,0.2c-2.3-0.4-3.4-1.7-3.5-4
			c-0.1-2.2-0.5-2.6-2.8-3c-11.4-2.3-21.8-6.6-30.4-14.8c-4.6-4.4-7.3-9.5-6.5-16c0.5-4.3,2.3-8.1,4.3-11.7
			C15.8,68,31.2,56.2,51.3,50.5c4.6-1.3,9.2-2.3,14-2.8c10.2-1.2,19.8,6.3,21.4,16.4c0.1,0.5,0.2,1,0.3,1.5c0.4,2.2,1.4,2.9,3.5,2.3
			c15.6-3.9,31.4-5.1,47.4-4.5c5.5,0.2,11,0.3,16.4,1.6c4,1,7.6,3.1,10.9,5.5c2.5,1.9,3.1,4.6,3,7.6
			C168.2,78.8,168.2,79.3,168.2,79.9z M116,95.7c4,0.3,8,0.2,12-0.3c7.4-1.1,14.9-2.3,21.9-5.1c4.5-1.8,8.7-4.1,11.7-8
			c2.5-3.2,2.1-6.7-0.7-9.5c-1.3-1.3-2.9-2.1-4.5-2.9c-5.3-2.5-10.9-2.8-16.6-3c-9.1-0.2-18.1,0.3-27.2,1.3
			c-9.8,1.1-19.5,2.7-28.7,6.6c-2,0.9-4,1.7-5.6,3.3c-3.3,3.3-2.8,8.2,1.1,10.7c2.2,1.4,4.5,2.4,7,3.1
			C96.1,94.7,105.9,96.2,116,95.7z M5.2,99.1c0,0.9-0.1,1.8,0,2.7c0.3,4,2.4,5.7,6.4,5.1c2.6-0.4,5.1-1.2,7.6-2
			c11.6-4,22-10.2,31.8-17.6c8.3-6.3,15.4-13.5,20-23c1.2-2.4,2-4.9,1.7-7.6c-0.4-3.6-3-5.9-6.5-5.5c-5.5,0.6-11,1.6-16.3,3.3
			C34,59.8,21.4,69.6,11,82.5C7.2,87.3,5,92.8,5.2,99.1z M114.1,117.4c0.7,0.8,0.4,1.4,0.3,1.9c-0.3,1.2,0.3,1.7,1.4,2
			c4.8,1.4,9.9,2,14.7,3.6c5.7,1.9,11.5,3.3,17.2,5.3c5,1.8,10,3.6,15,5.3c1.9,0.7,2.5,0.4,3-1.6c0.4-1.5,0.8-3,1.1-4.6
			c0.7-3.4,0.7-4.8-3.5-5.3c-0.4,0-0.8-0.1-1.2-0.2c-11.1-1.8-22.3-3.3-33.3-5.7c-2.8-0.6-5.2-0.8-6.8,2.1c-0.1,0.1-0.2,0.2-0.3,0.2
			c-0.5,0.3-0.8,0.4-0.9-0.3c-0.5-3-2.6-3.7-5.2-4.1c-5.3-0.7-10.5-1.5-15.8-2.3c-3.9-0.6-7.8-1.1-11.6-1.7c-2-0.3-3.1,0.6-2.8,2.4
			c0.2,1.4,1.4,2.3,3.2,2.4c1.5,0.1,2.9,0.1,4.4,0.1c5.2,0.3,10.2,1.4,15.2,2.6C110.6,120.2,112.7,119.9,114.1,117.4z M165.2,84.2
			c-0.5,0.3-0.8,0.4-0.9,0.6c-7.3,6.6-16,10.1-25.6,11.9c-5.9,1.1-11.8,1.6-17.7,2.1c-11.4,1-22.6,0.2-33.6-3.1
			c-3.9-1.1-7.8-2.6-11.4-4.4c-1.2-0.6-1.7-0.3-1.4,1c0.2,1.2,0.4,2.3,0.7,3.5c0.8,2.6,2.6,3.6,5.2,2.8c0.5-0.1,1.1-0.4,1.6-0.6
			c1.1-0.5,2.1-0.4,3.1,0.3c2.6,2,5.7,3.2,8.9,3.7c2.5,0.5,5.1,0.7,7.6,1.2c6.3,1.2,12.7,1.7,19,0.3c4.7-1.1,9.5-1.4,14.3-1.9
			c4.5-0.4,8.9-1.2,13.2-2.6c4.9-1.6,9.5-3.7,13.4-7.2C163.8,90,164.9,87.5,165.2,84.2z M14.5,115.1c2.2-0.5,4.8-1,7.4-1.7
			c4.6-1.2,9-2.8,11.9-7c0.6-0.9,1.5-1.1,2.5-1.2c6.4-0.8,11.3-4.2,15.3-9.2c1.1-1.4,2.4-2.5,4-3.3c1.5-0.8,3-1.4,4.5-2.2
			c2.6-1.3,4.9-3.2,5.6-6.1c0.8-3.4,2.9-5.3,5.9-6.6c1.2-0.5,2.3-1.3,2.6-2.7c0.7-4.1,2.9-7.2,5.6-10.1c2.6-2.8,2.2-5.4-0.7-7.8
			c-0.8-0.6-1.1-0.5-1.4,0.4c-0.2,0.5-0.4,1.1-0.6,1.6c-4.5,11.6-11.4,21.4-21,29.4c-8.9,7.4-19,12.6-29.7,16.7
			c-5.2,2-10.5,3.7-15.7,5.4c-0.5,0.1-1.3,0-1,0.9C10,113.1,12.6,115.2,14.5,115.1z M117.6,112.8c0,0.1-0.1,0.3-0.1,0.4
			c0.9,0.3,1.8,0.7,2.8,1c4.4,1.3,8.9,1.6,13.4,2.3c11.3,1.9,22.6,3,34,4.4c1.9,0.2,2.8-0.5,3.1-2.4c0.2-1.8,0.3-3.7,0.5-5.5
			c0.2-1.9,0.1-2.1-1.8-1.8c-12.4,1.9-24.9,1.7-37.4,1.5C127.2,112.5,122.4,112.6,117.6,112.8z M126.8,134.4c3-0.1,6-0.3,9.1-0.4
			c1.7-0.1,3.4-0.2,5-0.3c0.8-0.1,1.7-0.4,1.8-1.2s-0.8-1.1-1.5-1.3c-3.5-1.2-7-1.8-10.7-1.4c-5.1,0.5-10.1,1.2-15.2,0.8
			c-10.7-0.8-20.8-3-28.8-10.9c-1-1-2-0.8-2.8,0.3c-0.9,1.3-0.6,2.3,1,3.8c3.8,3.5,8.4,5.3,13.1,6.9
			C107.1,133.9,116.9,134.6,126.8,134.4z M102.6,110.8c2,0.1,2.8-0.5,3-1.9c0.2-1.7-0.5-2.6-2.4-3.1c-1.6-0.4-3.1-0.2-4.7,0.2
			c-3.7,0.9-7.1,0.1-9.8-2.5c-2.4-2.4-5.2-2.8-8.3-2.8c-1.9,0-3,1.2-2.5,3.1c0.7,2.5,2.3,4.1,4.8,4.9
			C89.3,110.4,96,110.6,102.6,110.8z M23.3,115.4c-0.5,0.1-1.2,0.1-1.9,0.3c-1.2,0.3-1.9,1.1-2.1,2.3c-0.1,1.3,0.8,1.7,1.7,2.2
			c1.4,0.7,2.8,1.3,4.2,2c4.2,2.2,8.9,2.5,13.2,4.3c1,0.4,1.8-0.1,2.2-1.2c0.8-2.1-0.5-4.8-2.9-5.8c-1.8-0.7-3.5-1.4-5.3-2.1
			C29.6,116.5,26.7,115.6,23.3,115.4z M195.2,132.3c-0.1-3.3-0.5-6.5-2.2-9.3c-0.5-0.9-1.2-2-2.4-1.6c-1.4,0.5-1,1.8-0.8,2.9
			c0.3,1.5,0.8,2.9,1,4.4c0.9,6.1-0.3,11.4-5.6,15.2c-0.3,0.2-0.9,0.4-0.8,0.9c0.1,0.6,0.8,0.6,1.2,0.7c2.7,0.5,4.7-0.8,6.3-2.8
			C194.4,139.6,195,136,195.2,132.3z M55.5,118.3c0-0.9-0.3-1.4-0.6-1.8c-1.5-3.1-3.4-6-4.1-9.5c-0.5-2.5-2.1-3.1-4.4-2.1
			c-2.1,0.9-3.8,2.3-5.7,3.5c-0.9,0.5-0.5,1.1,0.1,1.6C45.1,113.5,50,116.2,55.5,118.3z M119.1,126.9c-3.9-2.9-22.6-7.1-26.2-6
			C100.7,126.9,109.5,127.9,119.1,126.9z M182.2,136.3c0.1,1.2,0.2,2.4,0.4,3.7c0.3,1.6,0.5,1.7,1.9,0.7c4.6-3.2,5.8-8.3,3.3-13.6
			c-0.5-1.1-1-1.1-1.7-0.3C183.6,129.4,182.2,132.5,182.2,136.3z M63.2,101.1c4.6,0,4.8-0.2,3.3-3.4c-0.4-0.9-1-1.8-1.6-2.6
			c-1-1.3-2.4-1.9-4-1.5c-2.2,0.5-4.2,1.6-5.8,3.2c-1.1,1-0.8,2,0.6,2.5C58.5,100.3,61.3,101.1,63.2,101.1z M59,110.3
			c-0.2,0-0.6,0-1,0.1c-2.1,0.4-2.3,0.8-1.3,2.6c0.7,1.3,1.6,2.4,2.5,3.6c3.1,3.7,3.7,3.8,7.3,0.6c0.2-0.2,0.4-0.4,0.6-0.6
			c0.8-1,0.7-1.8-0.3-2.6c-1.1-0.7-2.1-1.4-3.2-2.2C62.3,111,60.8,110.4,59,110.3z M44.5,131.1c0,0.1,0,0.3,0.1,0.4
			c0.3,0.1,0.5,0.2,0.8,0.3s0.5,0.2,0.8,0.2c5.9,0.8,11.3-0.6,16.4-3.5c1.4-0.8,2.7-1.8,3.7-3.1c0.5-0.8,1.2-1.5,0.8-2.9
			C60.3,127.5,52.3,129.1,44.5,131.1z M175.6,115.1c0,1.1-0.1,2.1,0,3.2c0.2,1.5,1.1,2.3,2.6,2.3s2.6-0.6,2.9-2.2
			c0.6-2.5,0-5-0.4-7.5c-0.2-1.3-1.1-2.1-2.4-2.1c-1.3,0-2.1,0.8-2.4,1.9C175.3,112.1,175.3,113.6,175.6,115.1z M143,110.4
			c2.7,0.1,4.2-1.2,5.4-4.8c0.9-2.5-0.2-3.9-2.9-3.6c-2.5,0.3-4.1,1.8-5.2,4C138.8,109.5,139.3,110.3,143,110.4z M160.9,96.6
			c-4.5,2.3-7.6,5.4-9.6,9.5c-0.5,1.1-0.9,2.1,0.3,2.9s2.7,0.6,3.6-0.7c1.9-2.6,3.7-5.2,4.8-8.2C160.5,99.1,160.9,98,160.9,96.6z
			 M173.4,134.6c0,1.8,0.6,2.8,1.9,3.5c1.8,1,3,0.4,3-1.6c0-3.1,0.4-6.2,1.4-9.2c0.2-0.6,0.4-1.3-0.3-1.8c-0.7-0.4-1.4-0.4-2.1,0
			c-0.6,0.3-1.1,0.8-1.4,1.4C174.5,129.4,174.4,132.4,173.4,134.6z M69.9,105.3c-6-1.3-11.9-1.2-17.5-3.7
			C53.8,107.9,64.3,109.8,69.9,105.3z M79.9,117c-1.3-0.7-2.5-1.3-3.7-1.8c-0.8-0.4-1.7-0.5-2.4,0c-1.6,1.1-3,2.4-3.8,4.2
			c-0.5,1.2-0.4,2.4,0.2,3.6c0.3,0.6,0.8,0.9,1.5,0.5C74.8,121.7,77.5,119.7,79.9,117z M128.3,110.4c0.8,0,1.8,0,2.8-0.1
			c1.8-0.3,3.3-1.1,4.3-2.6c0.5-0.7,0.6-1.3-0.6-1.4c-2.3-0.2-4.7-0.6-7-0.9c-1.9-0.2-3.2,1.2-3.2,3.4c0,2.1,1.5,1.6,2.8,1.6
			C127.7,110.4,127.9,110.4,128.3,110.4z M40.3,113.7c0.8,4.8,11.1,10.2,16.4,8.6C51.1,119.5,45.4,117.4,40.3,113.7z M168.5,134.7
			c-0.1,1.2,0.4,1.6,1.1,1.7c0.9,0.1,1.4-0.4,1.6-1.2c0.7-2.6,1.3-5.2,2-7.8c0.2-0.9,0.4-1.7-0.6-2.1c-1.1-0.4-2,0.2-2.2,1.2
			C169.5,129.4,169,132.2,168.5,134.7z M74.2,102.6c-0.8-2.7-1.6-5.4-2.5-8.1c-0.6-1.9-1.4-3.8-2.1-5.6c-0.1-0.3-0.3-0.8-0.7-0.8
			c-0.5,0-0.4,0.6-0.5,0.9c-0.5,1.8-0.3,3.5,0.3,5.3C69.8,97.5,72,100,74.2,102.6z M110.7,109.7c2,0.5,3.9,1,5.9,1
			c1.8-0.1,3.4-0.8,4.6-2.2c0.4-0.5,1.1-0.9,0.8-1.5c-0.3-0.7-1.1-0.4-1.7-0.3C117,107,113.8,108.2,110.7,109.7z M45.5,123.1
			c-0.7,0.1-1.6-0.1-2.1,0.7c-0.5,0.9,0.1,1.6,0.5,2.3c1,1.6,2.2,2,4,1.4c0.9-0.3,1.7-0.7,2.7-1c0.9-0.3,0.7-0.7,0.2-1.1
			C49.3,124.1,47.6,123.1,45.5,123.1z M78.5,70.7c-0.2,1.2,0.1,1.7,1,1.2c0.7-0.3,1.4-0.7,2.1-1c1.1-0.6,1.9-1.5,2.1-2.8
			c0.1-1-0.3-1.6-1.3-1.4C80.9,66.9,78.6,69.5,78.5,70.7z M36.7,114.5c0-2.2-1.1-4-2.5-3.8c-1.3,0.2-2,1.1-2.1,2.3
			c-0.2,1.3,1.7,2.4,3.9,2.5C36.8,115.5,36.7,115,36.7,114.5z M79.2,112.2c-1.9-1.9-3.6-3.1-6-2.9c-0.4,0-0.9-0.1-1,0.4
			c-0.1,0.4,0.2,0.6,0.5,0.8C74.4,112.2,76.5,112.6,79.2,112.2z"/>
		<path d="M116.3,86.1c-3,0-5.7,0.1-8.3-0.5c-0.8-0.2-1.6-0.5-2.4-0.8c-1.5-0.6-2.4-1.6-2.4-3.3c0.1-1.6,1.4-2.1,2.5-2.5
			c3.5-1.3,7-2.4,10.7-3c5.3-0.8,10.6-0.8,15.8,0.6c2.5,0.7,3.5,1.9,3.5,3.9c0,1.8-1,2.9-3.2,3.7c-2.7,0.9-5.4,1.4-8.2,1.7
			C121.7,86,118.9,86.2,116.3,86.1z"/>
		<path d="M51.7,71.7c-0.1,1.6-0.7,3.5-2,5.2c-4.4,5.5-9.7,9.9-16.1,12.9c-1.1,0.5-2.2,0.9-3.4,0.8c-2.9-0.1-4.9-2.5-4-5.2
			c2.5-7.7,7.6-13,15-16.3c1.8-0.8,3.8-1.4,5.7-1.9C49.9,66.5,51.8,68,51.7,71.7z"/>
		<path d="M139.2,123.6c0,0.8-0.3,1.5-1.3,1.5c-0.9,0-1.5-0.6-1.5-1.4c0-0.9,0.6-1.4,1.5-1.4C138.8,122.2,139.2,122.7,139.2,123.6z"
			/>
		<path d="M129.7,121.4c0,0.9-0.5,1.5-1.4,1.5c-0.9,0-1-0.8-1.1-1.4c-0.1-0.9,0.5-1.3,1.4-1.3C129.4,120.1,129.6,120.7,129.7,121.4z
			"/>
	</g>
</g>
</svg>
