<?xml version="1.0" encoding="utf-8"?>
<!-- Generator: Adobe Illustrator 26.3.1, SVG Export Plug-In . SVG Version: 6.00 Build 0)  -->
<svg version="1.1" id="Layer_1" xmlns="http://www.w3.org/2000/svg" xmlns:xlink="http://www.w3.org/1999/xlink" x="0px" y="0px"
	 viewBox="0 0 200 200" style="enable-background:new 0 0 200 200;" xml:space="preserve">
<g id="Layer_6">
	<path d="M116.4,131c1.6,0,2.9-1.3,2.9-2.9c0-1.6-1.3-2.9-2.9-2.9h-8.6c-1.6,0-2.9,1.3-2.9,2.9l0,0v5.7h-2.8v-5.7
		c0-1.6-1.3-2.9-2.9-2.9s-2.9,1.3-2.9,2.9v8.6c0,1.6,1.3,2.9,2.9,2.9l0,0h5.7v2.8h-5.7c-1.6,0-2.9,1.3-2.9,2.9s1.3,2.9,2.9,2.9h8.6
		c1.6,0,2.9-1.3,2.9-2.9l0,0v-5.7h2.8v5.7c0,1.6,1.3,2.9,2.9,2.9s2.9-1.3,2.9-2.9v-8.6c0-1.6-1.3-2.9-2.9-2.9l0,0h-5.7V131H116.4z
		 M170.3,57.9c-4.1-2.9-15.1-9.4-29.8-7.1c-0.5,0.1-1,0.2-1.5,0.3c-1.2-7-6.1-16.8-14.5-29C117.3,11.7,110.3,3.4,110,3
		c-1-1.2-2.8-1.4-4.1-0.3c-0.1,0.1-0.2,0.2-0.3,0.3c-0.3,0.3-7.3,8.7-14.5,19.1c-8.4,12.2-13.3,22-14.5,29c-0.5-0.1-1-0.2-1.5-0.3
		c-14.7-2.2-25.7,4.2-29.8,7.1c-1.3,0.9-1.6,2.7-0.7,4c0.6,0.8,1.5,1.2,2.4,1.2c3.2-0.1,14,0.3,21.9,8.7c1.6,1.7,3,3.7,4.1,5.8
		c-0.6,0.4-1,1-1.3,1.7c-0.6,1.5-0.3,3.3,0.9,4.5l3.8,3.8c2,2,2.1,4.7,0.3,6.8L76,95.3c-0.1,0.1-0.1,0.1-0.2,0.2l-15.2,16
		c-1.3,1.4-2.6,2.8-3.7,4.4c-0.5,0.7-1,1.3-1.4,1.9c-5,7.2-7.6,15.7-7.7,24.5c0,0.6,0,1.1,0,1.7c0.1,2.3,0.4,4.6,0.9,6.9
		c0.2,1,0.4,2,0.7,2.9l0,0l0,0c0.9,3.3,2.3,6.5,3.9,9.5c0.2,0.3,0.4,0.6,0.6,1c2.4,4.1,5.5,7.9,9,11.1l5.9,5.4
		c1.7,1.5,3.5,2.9,5.6,3.9c-3.3,3-3.5,8.1-0.5,11.4c1.5,1.7,3.7,2.6,5.9,2.6h56c4.4,0,8.1-3.6,8.1-8c0-2.3-0.9-4.4-2.6-5.9
		c2-1.1,3.9-2.4,5.5-3.9l5.9-5.4c3.5-3.2,6.5-6.9,9-11l0.1-0.1c0.4-0.7,0.8-1.4,1.2-2.1c0.2-0.4,0.4-0.8,0.6-1.2
		c1.1-2.3,2-4.7,2.7-7.1l0,0l0,0c0.3-1,0.5-1.9,0.7-2.9c0.5-2.3,0.8-4.6,0.9-6.9c0.4-9.7-2.5-19.1-8.4-27.3
		c-0.2-0.3-0.4-0.6-0.6-0.8c-1.1-1.5-2.4-3-3.7-4.4l-15.2-16c0-0.1-0.1-0.1-0.1-0.2l-0.8-0.9c-1.8-2.1-1.7-4.8,0.3-6.8l3.8-3.8
		c1.2-1.2,1.5-2.9,0.9-4.5c-0.3-0.7-0.7-1.2-1.3-1.7c1.1-2.1,2.5-4.1,4.1-5.8c7.8-8.5,18.7-8.8,21.9-8.7c1.6,0,2.9-1.2,3-2.8
		C171.6,59.4,171.1,58.4,170.3,57.9L170.3,57.9z M95.9,25.3c4.6-6.7,9.3-12.7,12-16c2.6,3.3,7.3,9.2,11.9,15.9
		c8,11.7,12.8,21.2,13.7,27.2c-4.9,1.7-9.5,4.3-13.4,7.7c-2.1-6-5.6-11.4-10.2-15.7c-1.2-1.1-2.9-1-4,0.1c-4.4,4.6-7.7,10-9.8,16
		c-4-3.6-8.7-6.3-13.8-8.1C82.9,47.9,86,39.7,95.9,25.3z M132.8,95.5c-9.5,2.3-19.3,3.3-29.1,3c-7-0.3-14-1.3-20.9-3
		c1.8-4,1-8.6-2.3-11.9l-1.1-1.1h17.3l0,0h21.7l0,0l0,0h17.7l-1.1,1.1C131.8,86.9,131,91.5,132.8,95.5z M99.9,68.7
		c1.1-6.6,3.9-12.7,8.2-17.9c4.6,5.1,7.5,11.6,8.2,18.4c0.2,2.5,0.2,5-0.1,7.4H99.4C99.3,74,99.4,71.3,99.9,68.7L99.9,68.7z
		 M73.3,67.9c-5.2-5.6-11.5-8.3-16.7-9.5c5.6-2.2,11.7-2.9,17.7-2c10.1,1.5,16.9,7.2,20,10.5c-0.1,0.3-0.1,0.5-0.1,0.8
		c-0.5,3-0.7,6-0.6,9H79C77.6,73.5,75.6,70.5,73.3,67.9L73.3,67.9z M54.4,149.7c-0.4-2-0.7-4-0.7-6c0-0.5,0-1,0-1.5
		c0-6.6,1.8-13.1,5.1-18.8c6.7,4.4,8.6,13.4,4.3,20.1C61,146.7,57.9,148.9,54.4,149.7L54.4,149.7z M135.8,192.9h-56
		c-1.3,0-2.3-1-2.3-2.3s1-2.3,2.3-2.3h9.1l0,0h37.8c0.6,0,1.2,0,1.8-0.1c0.2,0,0.4,0.1,0.6,0.1h6.8c1.3,0,2.3,1,2.3,2.3
		C138.1,191.9,137.1,192.9,135.8,192.9L135.8,192.9L135.8,192.9z M148.8,171.1l-5.9,5.4c-4.2,3.8-10.1,6-16.2,6H89.6l0,0H89
		c-6.1,0-12-2.2-16.2-6l-5.9-5.4c-1-1-2-2-3-3c13.1,3.6,28.1,5.5,43.9,5.5c15.5,0,30.8-1.9,43.9-5.5
		C150.9,169.2,149.9,170.2,148.8,171.1z M157,123.4c3.6,6.1,5.4,13.2,5.1,20.3c-0.1,2-0.3,4-0.7,6c0,0,0,0,0,0.1
		c-7.8-2-12.5-9.9-10.5-17.7C151.7,128.5,153.9,125.4,157,123.4L157,123.4z M150.9,115.4c1,1,1.9,2.1,2.8,3.3
		c-9.4,6.2-12,18.8-5.8,28.1c2.7,4.2,6.9,7.2,11.8,8.5c-0.4,1.1-0.9,2.1-1.4,3.2c-0.2,0.3-0.3,0.7-0.5,1s-0.3,0.6-0.5,1
		c-14,4.8-31.5,7.4-49.5,7.4c-17.9,0-35.5-2.6-49.5-7.4c-0.9-1.7-1.7-3.4-2.4-5.1c10.8-2.9,17.3-14,14.4-24.8
		c-1.3-4.8-4.3-9-8.5-11.8c0.9-1.1,1.8-2.2,2.8-3.2l14.3-15c8,2.2,16.2,3.4,24.5,3.7c1.4,0.1,2.9,0.1,4.3,0.1
		c9.7,0,19.4-1.3,28.8-3.8L150.9,115.4z M142.5,67.9c-2.4,2.6-4.3,5.5-5.8,8.8h-14.8c0.3-2.7,0.3-5.3,0.1-8
		c-0.1-0.7-0.2-1.4-0.3-2.1c5.3-5.4,12.2-9,19.7-10.2c6-0.9,12.1-0.2,17.7,2C153.9,59.7,147.7,62.3,142.5,67.9z M107.9,109.7
		c-14.9,0-27,12-27.1,26.9c0,14.9,12,27,26.9,27.1c14.9,0,27-12,27.1-26.9c0,0,0,0,0-0.1C134.8,121.8,122.7,109.7,107.9,109.7z
		 M107.9,157.9c-11.7,0-21.3-9.4-21.3-21.2s9.4-21.3,21.2-21.3c11.7,0,21.3,9.4,21.3,21.2c0,0,0,0,0,0.1
		C129,148.4,119.6,157.9,107.9,157.9z"/>
</g>
</svg>
