<?xml version="1.0" encoding="utf-8"?>
<!-- Generator: Adobe Illustrator 26.3.1, SVG Export Plug-In . SVG Version: 6.00 Build 0)  -->
<svg version="1.1" id="Layer_1" xmlns="http://www.w3.org/2000/svg" xmlns:xlink="http://www.w3.org/1999/xlink" x="0px" y="0px"
	 viewBox="0 0 200 200" style="enable-background:new 0 0 200 200;" xml:space="preserve">
<g id="Layer_4">
	<g>
		<g>
			<g>
				<g>
					<path d="M1.7,90.3c0.1,0,0.2,0,0.3-0.1c3.6-2.9,7.9-3.7,12.4-4c4.4-0.3,8.8,0.2,13.2,0.5c4.8,0.3,9.5,0.5,14.3-0.7
						c1.1-0.3,2.2-0.6,2.9-1.7c0.4-0.6,0.6-0.1,0.7,0.2c0.5,1,0.8,2.1,1.1,3.1s0.6,2.1,0.8,3.1c0.1,0.5,0.3,0.6,0.7,0.3
						c5.7-3.3,11.9-3.8,18.3-3.2c0.7,0.1,1.4,0.2,2,0.2c0,0,0,0,0.2-0.1c-1-0.6-1.5-1.4-1.5-2.5c0-0.3-0.2-0.3-0.4-0.4
						c-0.7-0.4-0.8-0.8,0-1.2c1.1-0.6,2.3-1,3.5-1.2c0.7-0.1,1.3-0.3,2-0.7c-0.4-0.3-0.8-0.2-1.2-0.2c-1.2,0.1-2.5,0.3-3.7,0.4
						c-1.4,0.1-2.7-0.2-3.8-1c-0.6-0.5-1.2-1.1-1.4-1.9C62,78.5,62,78,61.3,77.6c-0.5-0.2-0.4-0.8-0.1-1.3c0.3-0.5,0.8-0.7,1.3-0.7
						c1.8-0.1,3.5-0.7,5.3-0.7c6.2,0,12-1.9,17.8-3.6c6.2-1.8,12.4-3.8,18.8-4.9c1.7-0.3,3.5-0.5,5.2-0.7c0.3,0,1.1-0.1,1.6-0.1
						c1.3-0.1,3.2-0.1,5.4,0c0.3,0,1,0.1,1.2,0.1c2.7,0.3,5.4,0.8,8,1.6c4.8,1.5,9.3,3.6,13.7,5.8c0.7,0.3,1.4,0.3,2,0.7
						c2.6,1.8,5.4,2.9,8.3,4c0.4,0.2,0.8,0.4,1.1,0.5c0.8,0.3,1.5-0.3,2.3-0.4c0.3,0-0.1-0.7,0-1.2c0.2-0.6-0.1-0.6-0.6-0.5
						c-0.6,0.1-1.1,0.3-1.6,0.6c-0.5,0.2-0.7,0.9-1.3,0.9c0.2-0.6,0.6-0.9,1.1-1.2c1.6-1.1,3.4-1.1,5.1-0.4c0.3,0.1,0.6,0.4,1,0.2
						c1.5-0.7,2.9-0.4,4.3,0.5c0.4,0.3,0.6,0.2,0.8-0.2c1.6-2.6,4.2-3.1,6.6-1.3c0.4,0.3,0.6,0.3,0.9-0.1c1.1-1.1,2.3-1.3,3.6-0.5
						c0.4,0.2,0.6,0.2,0.9-0.1c1.3-0.9,2.6-1,4-0.3c0.5,0.3,0.7,0.1,1-0.2c0.8-0.9,1.8-1.3,3-0.9c0.5,0.2,0.7,0.1,1-0.4
						c1-1.6,2.7-2.1,4.5-1.5c0.5,0.2,0.7,0.1,1.1-0.2c0.9-0.9,2-1.1,3.2-0.6c0.6,0.3,0.9,0.2,1.4-0.3c0.4-0.5,1-0.7,1.7-0.7
						c0.3,0,0.8-0.1,0.8,0.3c0.1,0.5-0.4,0.3-0.7,0.4c-1.5,0.2-2.1,1.2-1.6,2.7c1.6,5,3,10,3.8,15.2c0.3,1.8,0.5,3.6,0.7,5.3
						c0,2,0,3.9,0,5.9c-0.1,0.3-0.2,0.6-0.2,1c-0.2,2.2-0.6,4.3-1.2,6.5c-0.6,2-1.6,2.8-3.7,2.8c-0.3,0-0.5,0.1-0.7,0.3
						c-1.4,1-3,1.3-4.6,0.9c-0.4-0.1-0.6,0-0.9,0.3c-1.3,1.8-3.2,2.5-5.4,2c-0.4-0.1-0.6,0-0.9,0.3c-2.1,2.1-4.3,2.4-6.9,0.8
						c-0.3-0.2-0.5-0.3-0.8,0c-0.6,0.7-1.4,1-2.3,1.1c-1.6,0.3-3.2,0.7-4.8,1.1c-0.7,0.2-1.5,0.4-2.2,0.1c-0.6-0.2-1,0-1.5,0.4
						c-2.9,2.4-7,1.1-7.9-2.6c-0.1-0.3-0.1-0.7-0.5-0.8c-1.1-0.5-1.9-1.3-2.4-2.3c-0.3-0.6-0.6-0.5-1-0.1c-2.1,1.7-4.2,3.2-6.4,4.6
						c-9.4,5.8-19.4,10-30.4,11.1c-6.7,0.7-13.1,2.2-19.4,4.5c-1.4,0.4-1.6,0.4-3.3,0c-6.4-1.4-12.2-4.7-18.5-6.4
						c-8.4-2.3-16.9-3.5-25.6-3.7c-0.6,0-1.2-0.1-1.6,0.4c-0.1,0.1-0.3,0.2-0.3,0.1c-1.3-0.8-2.8-0.3-4.2-0.5
						c-2.6-0.3-5.2,0-7.7,0.2c-7.5,0.6-14.7,2.5-21.6,5.4c-1.3,0.5-2.6,1-3.8,1.5c-0.1,0-0.1,0-0.3,0c0.4-0.4,0.8-0.7,1.3-0.9
						c4.2-2.3,8.7-3.7,13.3-4.9c5.9-1.5,12-2.2,18.1-2.1c0.5,0,0.8-0.1,1-0.6c2.6-7.7,4-15.5,3.1-23.6c-0.3-2.9-1-5.8-2-8.6
						c-0.2-0.5-0.3-0.6-0.8-0.5c-5.1,1.1-10.2,1-15.2,0.3C22.7,87,20.8,88,19,90c-0.7,0.7-1.3,1.5-1.9,2.3c0.3-1.2,1-2,1.8-2.8
						c0.7-0.8,1.6-1.5,2.7-2.3C19,87,16.7,87,14.3,87.1c-4.1,0.2-8,1.3-11.6,3.3c-0.3,0.1-0.6,0.4-0.9,0.3
						C1.7,90.5,1.7,90.4,1.7,90.3z M139.3,85.5L139.3,85.5c-0.5-0.3-0.8-0.4-0.8,0.4c0,0.2,0,0.5,0,0.7s-0.1,0.4-0.3,0.4
						c-0.3,0-0.2-0.3-0.2-0.5c0-0.3,0-0.7,0.1-1c0-0.3,0-0.5-0.3-0.6c-0.4,0-0.2,0.3-0.3,0.5c-0.1,0.3-0.1,0.6-0.2,0.8
						c0,0.1-0.2,0.2-0.3,0.2c-0.2,0-0.2-0.2-0.2-0.4c0-0.2,0.2-0.3-0.1-0.5c-0.1,0.3-0.3,0.7-0.4,1c-0.3,1-0.2,1.2,0.8,1.1
						c0.6-0.1,1.2,0,1.6,0.5c0.1,0.2,0.3,0.4,0.6,0.3c0.5-0.3,0.6-0.9,0.6-1.4c0.1-0.5,0.4-1.1-0.1-1.6
						C139.6,85.5,139.5,85.5,139.3,85.5z M133.5,82.5L133.5,82.5c-0.2-0.6-0.4-0.2-0.6,0c-0.6,0.7-1.2,1.4-1.7,2.1
						c-0.2,0.2-0.5,0.5-0.3,0.8s0.6,0.3,0.9,0.3c1.1-0.1,1.9,0.1,2.2,1.3c0.2,0.7,0.6,0.5,0.9,0.1c0.4-0.5,0.7-1.1,1-1.7
						c0.1-0.4,1-0.8,0.2-1.2c-0.7-0.3-0.4,0.6-0.7,0.8c-0.2,0.2-0.3,0.7-0.7,0.6c-0.4-0.2-0.1-0.5,0.1-0.8c0-0.1,0.1-0.1,0.1-0.2
						c0-0.4,0.8-0.8,0.1-1.1c-0.6-0.3-0.3,0.6-0.6,0.8c-0.2,0.2-0.3,0.6-0.7,0.4c-0.3-0.2,0-0.5,0.2-0.7
						C134.3,83.4,134.3,82.8,133.5,82.5z M94,84.8c0-0.7,0-1.4-0.2-2.1c-0.3-0.8-0.8-1.3-1.6-1.3c-0.7,0-1.7,0.9-1.9,1.5
						c0,0.2-0.1,0.3,0.1,0.4C91.8,83.4,92.7,84.4,94,84.8c2,1.1,4,0.8,5.9-0.2c0.6-0.3,1.2-0.8,1.6-1.5c-1.2,0-2.3-0.4-3.4-0.5
						c-1.8-0.3-2.8,0.3-3.6,1.9C94.3,84.6,94.1,84.6,94,84.8z M131.7,71.8c0.5-0.3,0.7-0.8,1-1.2c-0.3-0.2-0.6-0.1-0.9-0.2l0,0
						c-2.1-0.7-4.2-1.4-6.3-2c-0.6-0.2-1.3-0.4-1.6,0.4c-0.3,0.7,0.5,0.8,0.9,1c0.9,0.5,0.9,1.1,0.1,1.7c-0.3,0.2-0.6,0.4-0.9,0.7
						c-0.2,0.2-0.5,0.4-0.4,0.7c0.1,0.4,0.5,0.3,0.8,0.3c1.8,0,3.5,0,5.3,0.1C130.9,73.4,131.5,72.9,131.7,71.8L131.7,71.8z
						 M42.6,88.7L42.6,88.7c2.1,6.6,2.4,13.4,1.3,20.2c-0.3,2.2-0.8,4.3-1.4,6.6c0.9-0.5,1.6-0.6,2.1,0.3c0.3,0.6,0.2,1.3-0.4,1.6
						c-0.9,0.5-1.5,0-2-0.8c-0.3,1-0.6,1.9-0.9,2.9c-0.1,0.3-0.4,0.7,0.1,0.8c0.6,0.1,0.3-0.4,0.4-0.7c0.1-0.7,0.6-1.2,1.3-1.1
						c0.8,0.1,1.1,0.6,1.1,1.4c0,0.2-0.2,0.5,0.2,0.8c2.2-6.2,3.2-12.6,3.2-19.3c-0.7,0.8-1.3,1.2-2.1,0.5c-0.5-0.5-0.5-1.1-0.1-1.7
						c0.3-0.4,0.7-0.4,1.2-0.4s0.6,0.5,1,0.7c0-1.2,0-2.3-0.2-3.5c-0.7,0.6-1.3,1-2.1,0.3c-0.5-0.4-0.5-1-0.2-1.5
						c0.6-0.8,1.3-0.7,2.1-0.3c0.1-2-1.4-9.4-2.2-10.8c-0.7,0.9-1,1.1-1.6,1.5C42.9,86.5,42,86.4,42,87
						C41.9,87.6,42.3,88.1,42.6,88.7L42.6,88.7z M119,101.5c-0.6-0.2-1.2-0.4-1.8-0.5c-4.6-1-9.2-1.4-13.9-1.4
						c-2.8,0-5.6,0.1-8.3-0.2c-3.4-0.4-6.6-1.2-9-3.8c-1.2-1.3-2.6-2.1-4.2-2.8c-1.1-0.5-2.2-1-3.3-1.4c-10-3.9-20.1-4.8-30.1-0.2
						c-0.5,0.2-0.8,0.4-0.7,1.1c1.9,9.3,1.1,18.5-2.1,27.4c-0.3,0.9-0.1,1,0.7,0.9c9.9-0.2,19.6,1.2,29.1,4.1c4.1,1.2,8,3.1,12,4.5
						c3.4,1.2,6.8,1.2,10.1-0.2c1.8-0.7,3.6-1.4,5.5-1.9c3.7-0.9,7.5-1,11.3-1.5c10.4-1.6,20.1-5.1,29.1-10.7
						c0.5-0.3,0.6-0.6,0.2-1.1c-1.3-1.9-0.3-4.1,2-4.4c0.8-0.1,1.5,0,2.2,0.1c0.6,0.1,1.2,0.4,1.9,0.4c-0.1-0.9-0.7-1.5-1.4-1.9
						c-0.8-0.5-1.8-0.7-2.7-0.8c-2.3-0.3-4.6,0-6.8,0.5c-3.8,0.8-7.4,2.3-11.3,3c-8.8,1.6-17.7,2.8-26.6,3.6
						c-4.9,0.4-9.9,0.6-14.8,0.4c-3.3-0.1-6.6-0.6-9.9-1.6c-0.9-0.3-1.8-0.7-2.6-1.4c0.5-0.2,0.8,0,1.1,0.1c3.7,1.1,7.5,1.9,11.4,2
						c9.2,0.3,18.3-0.5,27.3-2.1c1.4-0.3,2.8-0.4,4.2-0.9c-2.3-0.8-3.4-2.7-3-5.5C115.1,103,116.3,102,119,101.5z M158.3,89.5
						c-0.1,0-0.1,0.1-0.2,0.1c-0.1,0.3-0.2,0.6-0.3,0.8c-0.8,2-2.1,3.6-4.2,4.3c-0.8,0.3-1.7,0.4-2.5-0.1c-0.5-0.3-0.7-0.8-0.4-1.4
						c0.2-0.4,0.6-0.6,1-0.4c0.6,0.3,0.2,0.8,0,1.3c1-0.2,1-0.8,0.8-1.4c-0.4-1.2-1.4-1.7-2.5-2c-1.9-0.5-3.8-0.7-5.2-2.3
						c-0.4,1.2-0.7,1.4-1.9,1.1c-0.4-0.1-0.9-0.1-1.2,0.2c-0.6,0.6-1.3,0.7-2,0.3c-0.1,0.4,0,0.7,0.1,0.9c0.3,0.7,0.7,0.7,1.1,0.1
						c0.2-0.4,0.5-0.4,0.8-0.2c0.4,0.3,0.5,0.7,0.2,1.1c-0.4,0.7-1.5,0.8-2.2,0.1c-0.2-0.2-0.4-0.4-0.7-0.8
						c-0.1,1.3-0.3,2.4,0.7,3.2c0.2,0.2,0.7,0.7,0.9-0.1c0.1-0.4,0.4-0.6,0.8-0.5c0.3,0,0.5,0.3,0.6,0.6c0.1,0.4-0.2,0.7-0.5,0.9
						c-1.1,0.7-2.5,0-3-1.4c-0.1-0.4,0-0.8-0.3-1.1c-0.7,0.7-1.5,1.4-2.5,1.5c-0.8,0.1-1.5-0.3-1.6-1c-0.1-0.5,0.1-1,0.7-1.1
						c0.4-0.1,0.7,0,0.9,0.4c0.2,0.7-0.5,0.6-0.9,0.8c1.2,0.8,2.8,0,3.6-1.7c-0.9,0.3-1.8,0.4-2.5-0.3c-0.3-0.3-0.4-0.7-0.2-1.1
						c0.1-0.3,0.4-0.5,0.8-0.5c0.4,0,0.7,0.3,0.7,0.7c0.1,0.8,0.6,0.5,0.9,0.3c0.5-0.2,1.1-0.9,0.9-1.1c-0.6-0.4-1-1.1-1.8-1.1
						s-1.6,0.3-2.1-0.6c-0.1-0.1-0.2,0-0.3,0c-1.2,0.4-1.4,0.4-1.8-0.8c-0.2-0.6-0.5-0.8-1.1-0.8c-0.8,0-1.8,0.1-1.9-0.8
						c-0.1-1.2-1.4-0.5-1.6-1.3c0-0.1-0.1-0.3-0.1-0.4c0.1-1.1-0.6-1.5-1.5-1.7s-1.6-0.7-1.4-1.8c0-0.3-0.1-0.3-0.3-0.4
						c-1.2-0.6-1.3-0.8-0.7-2.1c0.4-1,0.3-1.4-0.7-2c-0.1-0.1-0.2-0.1-0.4-0.2c-1-0.5-1.1-1.2-0.3-1.9c0.1-0.1,0.5-0.1,0.3-0.4
						c-0.9-1.2,0.1-1.7,0.8-2.2c1.1-0.8,1.1-0.8-0.1-1.5c-0.5-0.3-0.8-0.6-0.7-1.2c0.1-0.5,0.5-0.9,1-0.9c0.4-0.1,0.8,0,1.4,0
						c-1.2-0.5-2.3-0.7-3.3-1c-6.9-1.6-13.8-0.9-20.6,0.5c-8.2,1.7-16.1,4.7-24.3,6.7C77,73.9,77,74.2,77,74.6
						c0,1.4,0.5,2.7,1.3,3.9c0.4,0.7,0.9,0.8,1.7,0.6c4.5-1.3,8.9-2.6,13.4-3.7c0.4-0.1,0.9-0.1,1.3-0.4c-1.9-0.4-3.8-0.5-5.7-0.1
						c-1.9,0.4-3.5,1.3-5.3,2.4c0.7-1.3,2.4-1.3,2.3-2.9c-1.1,0.8-2,1.9-2.9,2.9c-0.2-0.3-0.1-0.5,0-0.6c2.3-3.9,6.4-5.5,10.7-4.3
						c1,0.3,2,0.6,3.1,0.6c1-0.1,1.8-0.4,2.3-1.2c0.2-0.3,0.2-0.6,0-0.9c-0.3-0.4-0.5,0-0.7,0.1c-0.5,0.2-0.9,0.1-1-0.4
						c-0.2-0.5,0-0.9,0.6-1c0.9-0.2,2.3,0.4,2.8,1.1c0.6,0.8,0.5,1.9-0.2,2.9c-0.2,0.2-0.5,0.3-0.4,0.8c1.2-0.1,2.3-0.3,3.6-0.4
						c-0.7-0.7-1-1.5-0.4-2c0.7-0.7,1.4-1.5,2.6-1.3c0.6,0.1,1.3,0.1,1.9,0.2c0.7,0.1,1.1,0.7,0.9,1.4c-0.1,0.4-0.5,0.7-0.4,1.2
						c2.8-0.2,5.6-0.9,8.5-1.4c-0.7,0.5-1.2,0.6-1.7,0.7c-2.1,0.6-4.1,1-6.3,1.2c-0.9,0.1-1.2,0.5-1.2,1.3c-0.1,1.1,0,2.2,0.1,3.2
						c0.3,2,0.8,4.1,0.4,6.1c-0.1,0.9,0.2,0.8,0.8,0.7c1.8-0.5,3.5-0.9,5.3-1.4c2.4-0.6,4.9-0.7,7.2,0.3c2.6,1.1,4.7,3,7,4.6
						c-0.6-0.1-1.1-0.4-1.5-0.7c-1.2-0.8-2.3-1.7-3.5-2.5c-2.2-1.5-4.6-2.1-7.3-1.7c-1.4,0.2-2.8,0.5-4.2,0.9
						c-1.5,0.5-3,0.9-4.5,1.2c-1.2,0.2-2.6,0.2-4,0.1c-1.9-0.1-3.8,0-5.7,0.3c-6.2,1.1-12.4,2.1-18.7,2.5c-1.6,0.1-3.2,0.2-5,0.3
						c0.3,0.1,0.3,0.2,0.4,0.2c2.9,0.9,5.8,2,8.6,3.3c0.6,0.2,1.2,0.4,1.5,0.9c0.3,0.3,0.4,0.8,0.7,1.1c1.2,1.3,2.7,2.3,4.4,2.9
						c2.9,1.1,5.9,1.3,9,1.3c3.6,0,7.3-0.1,10.9,0.2c0.8,0.1,1.6,0.1,2.4,0.2c-3.3-0.8-6.6-1.3-9.9-1.4c-2.6-0.1-5.2-0.3-7.4-2
						c-0.2-0.2-0.5-0.2-0.7-0.3c-1.2-0.4-2.1-1.1-2.3-2.4c-0.2-1.4,0.3-2.5,1.5-3.3s2.4-1.5,3.8-1.8c3.7-0.9,7.5-0.9,11.3-0.7
						c4,0.3,7.9,1,11.8,1.4c4.7,0.6,9.5,1,14.4,0c-0.6,0.4-1.1,0.5-1.6,0.6c-3.2,0.6-6.4,0.5-9.6,0.3c-3.4-0.3-6.8-0.8-10.2-1.2
						c-0.8-0.1-1.2,0-1.4,0.9c-0.7,2.9-0.6,5.7,0.5,8.5c0.2,0.5,0.4,0.6,0.9,0.7c2.3,0.5,4.6,1,6.9,1.6c7,1.7,13.9,3.7,21,4.3
						c4.9,0.4,9.7,0.3,14.4-0.9c0.7-0.2,1-0.5,1.1-1.2c0.4-2.5,0.8-4.9,1.1-7.4C158.2,93.3,158.3,91.4,158.3,89.5z M98.6,85.9
						c2.6-0.4,5.2-0.1,7.7-0.2c0.8,0,1.1-0.4,1.1-1.1c0.4-3.3-0.3-6.4-1.4-9.4c-0.2-0.6-0.5-0.8-1.2-0.7c-2.1,0.3-4.2,0.5-6.2,0.8
						c-6.2,0.9-12.1,3-18.1,4.5c-0.7,0.2-0.6,0.6-0.5,1c0.3,2.4,0.9,4.7,1.8,6.9c0.2,0.5,0.5,0.7,1,0.6c1.8-0.2,3.6-0.4,5.5-0.7
						c2.8-0.4,5.6-0.8,8.6-1.5c-1.1-0.2-2-0.2-2.7-0.6c-0.8-0.3-1.6-0.8-2.3-1.3c-1.2-0.8-2.5-0.7-3.7-0.1c-0.8,0.4-1.4,1-2.1,1.6
						c-0.3,0.3-0.6,0.7-1.2,1c0.1-0.3,0.1-0.4,0.2-0.5c0.9-1,1.6-2.1,1.8-3.5c0-0.4,0.4-0.8,0.7-1.1c0.7-0.7,1.6-0.9,2.3-0.2
						c0.5,0.4,0.7,0.3,1.1-0.1c1.1-1.1,2.6-0.7,3.3,0.7c0.1,0.3,0.1,0.7,0.4,0.9c0.4-0.3,0.8-0.6,1.2-0.9c-0.5-0.3-1.1-0.7-1.6-1
						c-2.3-1.5-4.4-1.5-6.6,0.1c-1.2,0.8-2.1,1.9-3,3.1c-0.2,0.3-0.4,0.8-0.9,0.9c-0.2-0.2-0.1-0.5,0.1-0.6c1-1.6,2.2-3.1,3.9-4.1
						c2.2-1.3,4.4-1.4,6.7,0.1c0.6,0.4,1.3,0.8,2,1c1.2,0.3,2.3,0.1,3.2-0.8c0.5-0.5,0.7-1.1,0-1.7c0,0.6-0.1,1-0.7,1.2
						c-0.4,0.1-0.7,0-0.9-0.3c-0.3-0.3-0.4-0.7-0.2-1.1c0.2-0.6,0.7-0.7,1.3-0.7c0.4,0,0.7,0.1,1.1,0.1c1.4,0.1,2.3,1,2.5,2.4
						c0.2,1.3-0.3,2.4-1.2,3.4C100.5,84.9,99.5,85.4,98.6,85.9z M187,100.5c-0.1-2-0.3-4.5-0.5-7c-0.5-6.4-1.7-12.6-3.7-18.7
						c-0.1-0.3-0.2-0.6-0.6-0.7c-0.8-0.3-1.5-0.2-2.1,0.4c-0.6,0.5-1,1.1-0.8,2c1.5,6.6,2.1,13.2,2.3,19.9c0.1,5.1,0,10.3-0.7,15.4
						c0,0.4,0,0.6,0.4,0.8c1.8,0.8,4.6-0.4,5.2-2.3C187.4,107.2,187.1,104.1,187,100.5z M157.2,77c1.5,1.2,2.5,2.7,3.2,4.4
						c0.5,1.4,0.9,2.8,1.2,4.2c1.3,7.1,1,14.1,0.1,21.2c-0.2,1.3-0.4,2.6-0.9,3.7c-1.1,2-2.7,3.7-5.4,3.5c-0.4,0-0.7-0.1-0.5,0.5
						c0.9,2.9,4.8,4,7,1.9c0.2-0.2,0.4-0.4,0.3-0.8c-0.2-1.2,0.2-2.3,0.6-3.4c0.7-2,1.4-4.1,2-6.2c2.1-7.6,2.1-15-0.9-22.4
						c-0.6-1.4-1.1-2.9-1.4-4.4C161.7,77.3,159.3,76.1,157.2,77z M174.8,90.7c0-3.5-0.4-8.7-1.1-13.8c-0.2-1.3-1.3-2.1-2.6-1.8
						c-1.1,0.3-1.6,1.1-1.2,2.2c0.3,1,0.5,1.9,0.7,2.9c1.7,8.9,1.7,17.9,0.2,26.8c-0.4,2.4-0.9,4.7-1.5,7.1
						c-0.1,0.2-0.4,0.6,0.1,0.7c1.1,0.3,3.1-1,3.3-2.2C174.2,106,174.8,99.2,174.8,90.7z M196.8,90.5h0.1c0-0.3-0.1-0.6-0.1-1
						c-0.7-5.8-2.5-11.4-4-17c-0.3-1.3-1.9-1.9-3.1-1.1c-0.7,0.4-0.9,0.8-0.6,1.7c0.9,2,1.6,4,2.1,6.2c0.6,2.7,1.3,5.3,1.7,8
						c0.7,5.1,1,10.3,0.7,15.4c-0.1,1.7-0.3,3.4-0.4,5.1c0,0.4-0.1,0.8,0.2,1c0.4,0.3,0.7,0,1-0.2c0.5-0.2,0.9-0.6,1.1-1.2
						c0.9-2.6,1.4-5.3,1.6-8c-0.3,0-0.2,0.4-0.6,0.3c0.6-3.2,0.6-6.5-0.2-9.9C196.5,90.1,196.7,90.3,196.8,90.5z M149.9,108.2
						c0-0.6,0-1,0-1.4c0.1-1.2,0.1-1.2-1.2-1.2c-3.1,0.2-6.1,0-9.2-0.3c-6.2-0.7-12.2-2.4-18.2-3.9c-0.2,0-0.3-0.1-0.5-0.1
						s-0.3-0.2-0.5,0.1c1.7,0.9,2.6,2.3,2.9,4.2c0.2,1.8-0.4,3.4-1.7,4.8c0.5-0.1,0.9-0.2,1.3-0.4c2.3-0.9,4.6-2,6.9-2.7
						c2.2-0.7,4.5-1.3,6.7-0.6c1.6,0.5,3,0.3,4.4,0.1c0.2,0,0.4-0.1,0.6-0.1C144.3,106.4,147.2,106.2,149.9,108.2z M111.2,98.4
						c0-0.3,0-0.4,0-0.5c-1.1-3-1.1-6,0.3-8.9c0.3-0.6,0-0.6-0.4-0.6c-3.4-0.4-6.9-0.5-10.3-0.1c-0.9,0.1-1.8,0.2-2.9,0.6
						C98.5,89,98.7,89,99,89c1.8,0.3,3.5,0.7,4.8,1.9c1.8,1.6,1.5,3.7-0.6,4.8c-0.8,0.4-1.7,0.6-2.6,0.8c-1,0.1-2,0-3,0.1
						C102.1,97.7,106.7,97.3,111.2,98.4z M73.3,82.4c0.2,0,0.3,0,0.5,0c0.5,0.1,1.2-0.1,1.3,0.6c0.1,0.7-0.7,0.8-1.1,1
						c-1.8,0.6-3.6,1.2-5.5,1.2c-0.8,0-0.7,0.5-0.5,0.9c0.1,0.4,0.3,0.7,0.6,0.9c0.9,0.7,1.8,1.4,3.1,1.6c3,0.5,5.9,0.2,8.9-0.1
						c0.4,0,0.5-0.2,0.3-0.6c-1-2.3-1.3-4.7-1.3-7.2c0-0.4-0.1-0.7-0.5-0.5C77,80.8,75.1,81.4,73.3,82.4z M76.3,75.4
						c0.4-1-0.1-1.1-1-0.8c-1.2,0.3-2.5,0.5-3.7,0.7c-0.3,0.1-0.6,0.1-0.8,0.4c-0.6,1.1-1.7,1.5-2.8,1.7c-1.4,0.3-2.8,0.3-4.2,0.4
						c-0.9,0-1.1,0.4-0.8,1.2c0.4,0.9,1.1,1.5,2,1.9c1.2,0.5,2.4,0.4,3.6,0.3c1.4-0.1,2.8-0.5,4.1,0.3c0.1,0.1,0.4-0.1,0.6-0.1
						c1.3-0.4,2.5-0.9,3.8-1.3c0.6-0.2,0.7-0.3,0.3-0.9C76.6,78.1,76.3,76.8,76.3,75.4z M191.4,84c-1.4,1.5-3,2-4.9,1.5
						c-0.6-0.2-0.5,0.2-0.4,0.5c0.3,2,0.5,4,0.8,5.9c0,0.3,0.1,0.5,0.4,0.6c1.6,0.8,3.2,0.9,4.8,0c0.3-0.2,0.6-0.4,0.5-0.8
						c-0.2-1.7-0.3-3.3-0.6-5c-0.3,0.1-0.5,0.2-0.8,0.3c-1.2,0.6-2.5,0.8-3.8,0.6c-0.3-0.1-0.9,0-0.8-0.5c0.1-0.4,0.6-0.2,0.9-0.2
						c0.9,0.1,1.8,0,2.7-0.3C191.9,86.1,191.9,86,191.4,84z M141.6,84.9c0.1,0,0.4,0,0.6,0c0.3,0,0.7-0.1,1-0.1
						c3.2-0.7,5.6-2.4,7.2-5.3c0.1-0.2,0.4-0.5,0.1-0.7c-0.3-0.2-0.4,0.2-0.6,0.3c-1.1,0.7-2.2,1.5-2.6,2.9c0,0.1-0.2,0.2-0.4,0.3
						c-0.7,0.6-1.8,0.1-2.4,0.5c-0.7,0.5-1.2,1.2-2.1,1.3c-1.2,0.1-2.2-0.4-3.1-1.2c-0.3-0.3-0.6-0.5-1.1-0.4c-2.1,0.4-4-1-4.2-3.2
						c0-0.5-0.2-0.8-0.7-1.1c-1.4-0.8-1.9-2.4-1.1-3.8c0.5-0.8,1.3-1.5,1.1-2.6c0-0.1,0.1-0.2,0.1-0.3c0-0.2,0.7-0.3,0.2-0.7
						c-0.4-0.3-0.6,0-0.9,0.3c-0.9,1.2-1.4,2.6-1.4,4.1C131.1,80.3,136,84.9,141.6,84.9z M165.9,80.8c1.3-0.1,2.4-0.4,3.4-1.2
						c0.3-0.2,0.5-0.5,0.5-0.9c-0.1-1.1-0.5-2-1.3-2.7c-2.1-1.7-5.1-0.9-6,1.7c-0.2,0.7,0.4,2.4,1,2.6
						C164.2,80.6,165,80.9,165.9,80.8z M192.8,98L192.8,98c0-0.7,0-1.4,0-2.1c0-0.6-0.1-0.7-0.7-0.5c-1.4,0.6-2.8,0.7-4.2,0.2
						c-0.6-0.2-0.7,0-0.6,0.5c0.1,1.1,0.2,2.2,0.2,3.3c0.1,1.7,0.4,2,2.1,2.1c0.5,0,1,0,1.5-0.1c1.4-0.4,1.8-0.8,1.8-2.3
						C192.8,98.9,192.8,98.4,192.8,98z M150.3,106.1c0.1,0.8,0.2,1.6,0.4,2.4c0.3,1,0.9,1.7,1.9,1.9c1.1,0.2,1.7-0.5,2.2-1.3
						c0.8-1.3,1.2-2.7,1.6-4.1c0.1-0.5,0-0.6-0.5-0.5c-1.6,0.5-3.3,0.8-5,0.9C150.5,105.5,150.3,105.6,150.3,106.1z M175.5,93
						c0,1.7,0.1,3.3,0,4.9c0,0.8,0.3,1.1,0.9,1.3c1.2,0.3,2.4,0.3,3.6,0c0.4-0.1,0.4-0.3,0.4-0.6c0-1.6-0.1-3.1-0.1-4.7
						c0-0.5-0.1-0.7-0.6-0.6C178.4,93.5,177.1,93.4,175.5,93z M192.6,103.5c-1.5,0.6-2.8,0.9-4.2,0.6c-0.6-0.2-0.7,0.1-0.7,0.6
						c0,1.6,0,3.1-0.4,4.7c-0.1,0.5,0.1,0.7,0.5,0.8c1.3,0.3,2.6,0.1,3.7-0.7c0.2-0.1,0.4-0.3,0.5-0.6
						C192.3,107.2,192.5,105.4,192.6,103.5z M176.5,114.6c1.1,0,2.1-0.3,2.9-0.9c0.2-0.1,0.5-0.3,0.4-0.5c-0.3-1.2,0.1-2.5,0.2-3.7
						c0-0.6-0.1-0.6-0.6-0.4c-0.7,0.3-1.5,0.3-2.3,0.4c-0.9,0.1-2-0.6-2.5,0s-0.4,1.7-0.5,2.6c-0.3,1.6-0.1,1.9,1.5,2.3
						C175.8,114.5,176.2,114.5,176.5,114.6z M184.7,79.2c0.4,1.8,0.7,3.4,1.1,5c0.1,0.2,0.2,0.4,0.4,0.5c1.4,0.4,2.7,0.3,4-0.6
						c1.2-0.8,1.1-1.9,0.7-3c-0.2-0.5-0.1-1.1-0.4-1.5c-0.4-0.4-0.9,0.2-1.4,0.2C187.6,79.9,186.2,79.7,184.7,79.2z M127.3,75.8
						c0.9-0.6,2-0.8,3-1c0.4-0.1,0.4-0.4,0.5-0.6c0-0.4-0.3-0.3-0.5-0.2c-2.1,0.1-4.1,0.2-6.2,0.4c-0.4,0-0.9,0-0.9,0.6
						c0,0.5,0.4,0.5,0.8,0.6c1.3,0.5,1.7,1.4,1.2,2.6c-0.4,1-0.1,1.3,0.9,1.1c1.5-0.3,2.9-0.9,4.2-1.5c0.3-0.1,0.5-0.3,0.4-0.7
						c-0.1-0.6-0.1-1.2-0.2-1.8C129.5,75.4,128.5,75.9,127.3,75.8z M167.1,111.2c1.4,0,2.2-0.7,2.5-2.1c0.2-0.9,0.3-1.7,0.5-2.6
						c0.1-0.6,0.1-0.8-0.7-0.7c-1.2,0.2-2.3,0.1-3.3-0.5c-0.5-0.3-0.6-0.1-0.7,0.4c-0.3,1.2-0.7,2.4-1,3.6c-0.1,0.3-0.2,0.5,0.1,0.8
						C165.3,110.7,166.1,111.2,167.1,111.2z M135.9,77.7c-0.1-0.1-0.3-0.1-0.4-0.2c-2-0.6-2.3-2-0.8-3.4c0.2-0.1,0.3-0.3,0.1-0.4
						s-0.3-0.7-0.7-0.3c-0.8,0.5-1.5,1.1-1.5,2.1s0.6,1.7,1.5,2.1c0.5,0.2,0.8,0.4,0.7,1c-0.1,1.9,1.2,3.1,3.1,3
						c0.6,0,1.1,0,1.6,0.4c0.7,0.5,1.5,0.9,2.3,1c0.9,0.1,1.7-0.1,2.1-0.9c0.3-0.5,0.5-0.4,0.9-0.3c0.8,0.3,1.5,0.1,2.1-0.5
						c0.5-0.5,0.1-1.4,0.5-1.8s1.3,0,1.9-0.6c0.2-0.2,0.5-0.4,0.2-0.6c-0.3-0.3-1-0.7-1.2-0.4c-0.4,0.5-1.4,0.4-1.5,1.2
						c-0.2,1.9-0.9,2.4-2.7,1.9c-0.4-0.1-0.5,0-0.6,0.3c-0.3,0.8-0.9,1.2-1.7,1.3c-0.9,0.1-1.6-0.4-2.1-1.1c-0.3-0.5-0.4-1-0.5-1.6
						c-1.1,0.6-2.2,1.4-3.3,0.4C135,79.6,135.4,78.6,135.9,77.7z M167,92.4c0-0.1,0-0.2,0.1-0.3c0.5,0.1,0.9,0.1,1.4,0.2
						c0.8,0.1,1.5,0,2.2-0.2c0.5-0.2,0.4-0.6,0.4-1c0-0.3-0.2-0.3-0.4-0.2c-1.4,0.6-2.7,0.7-4.2,0c0.3,1.9,0.4,3.6,0.4,5.4
						c0,0.4,0,0.7,0.5,0.8c1,0.4,2,0.5,3.1,0.3c0.5-0.1,0.7-0.3,0.7-0.8c0-1,0-2.1,0-3.1c0-0.7-0.1-1-0.9-0.8
						C169.1,92.9,168,92.9,167,92.4z M175.3,101.7c-0.2,1.5-0.3,3-0.5,4.5c0,0.3,0.1,0.5,0.4,0.5c1.3,0.1,2.7,0.2,4-0.2
						c0.4-0.1,1-0.3,1-0.9c0.1-1.3,0.1-2.5,0.2-3.9C178.7,102.1,177,102.2,175.3,101.7z M175.4,88C175.4,88,175.5,88,175.4,88
						c0.1,0.7,0.1,1.4,0.2,2c0,0.3,0,0.6,0.4,0.7c1.2,0.4,2.3,0.6,3.5-0.1c0.5-0.3,0.7-0.5,0.6-1.1c-0.1-1.1-0.3-2.1-0.3-3.2
						c0-0.9-0.2-1.4-1.2-0.8c-0.4,0.2-0.8,0.1-1.2,0.3c-0.7,0.2-1.6-0.5-2,0C175.2,86.3,175.4,87.2,175.4,88z M122.1,111
						c5.1-0.6,10-2,14.9-3.5c-0.3-0.3-0.6-0.3-0.9-0.3c-1.6-0.2-3.2-0.1-4.8,0.3C128.1,108.2,125.2,109.8,122.1,111z M185.8,76.7
						c1.2,0,2.3-0.5,3.1-1.5c0.5-0.6,0.2-2.2-0.4-2.6c-1.7-1.2-3.9-0.7-4.8,1.3c-0.2,0.4-0.8,0.6-0.4,1.3
						C183.7,76.2,184.3,76.7,185.8,76.7z M174.5,77.6c0.2,1.7,0.4,3.3,0.6,4.9c0,0.2,0.1,0.3,0.4,0.4c1.2,0.3,2.4,0.4,3.5-0.3
						c0.3-0.2,0.5-0.3,0.4-0.7c-0.2-1.2-0.3-2.4-0.5-3.7c-0.1-0.4-0.2-0.5-0.6-0.3C177,78.3,175.8,78.1,174.5,77.6z M163.9,82.4
						c0.6,3.1,1.9,3.9,4.8,3.1c0.4-0.1,0.9-0.3,1.3-0.5c0.4-0.2,0.6-0.4,0.5-0.9c-0.2-1-0.3-1.9-0.4-3
						C168.1,82.2,166.1,82.8,163.9,82.4z M128.3,79.5c-0.4-0.1-0.6,0.1-0.9,0.2c-0.5,0.2-1.2,0.4-1.1,1c0,0.7,0.7,0.7,1.3,0.8
						c1.1,0.2,1.8,0.7,1.8,1.9c0,0.4,0.2,0.7,0.6,0.5c1.1-0.5,2-1.3,2.7-2.2c0.2-0.2,0.1-0.4,0-0.6c-0.2-0.3-0.4-0.1-0.6,0.1
						c-0.3,0.3-0.6,0.5-0.9,0.8c-0.1,0.1-0.3,0.3-0.5,0.1c-0.2-0.2,0-0.4,0.1-0.5c0.4-0.3,0.7-0.6,1.1-0.8c0.3-0.2,0.2-0.4,0.1-0.7
						c-0.2-0.3-0.4-0.2-0.6-0.1c-0.5,0.4-1,0.7-1.5,1.1c-0.3,0.2-0.6,0.5-1.1,0.3c0.6-0.9,1.5-1.2,2.2-1.7c0.2-0.2,0.8-0.2,0.5-0.6
						s-0.6,0-0.8,0.1c-1,0.3-1.8,1.1-2.9,1.2C127.6,79.9,128.1,79.9,128.3,79.5z M157.9,101.1c-0.3,1.5-0.6,2.8-0.9,4.2
						c0,0.1,0,0.1,0,0.2c-0.1,0.2,0,0.4,0.1,0.6c0.7,1,2.3,1.4,3.4,0.9c0.3-0.1,0.4-0.3,0.4-0.6c0.1-1.1,0.2-2.3,0.3-3.4
						c0-0.3,0-0.6-0.4-0.6C159.8,102.3,158.8,101.8,157.9,101.1z M153.1,92c0-1.3-0.4-2.1-1.6-2.6c-0.8-0.4-1.7-0.6-2.5-0.9
						c-1.7-0.5-3.2-1.3-3.8-3.2c-0.1-0.4-0.4-0.3-0.7-0.2c-0.3,0.1-0.4,0.2-0.3,0.5c0.3,1.1,0.8,2.1,1.8,2.8c0.9,0.7,2,1,3.1,1.2
						C150.5,90.1,152,90.5,153.1,92z M166.7,99.1c-0.2,1.2-0.4,2.4-0.6,3.6c0,0.3-0.1,0.5,0.2,0.7c1.1,0.6,2.2,0.6,3.4,0.1
						c1-0.4,0.9-1.2,1-2c0-0.4,0.1-0.7,0.1-1.1c0-0.3-0.1-0.5-0.4-0.4C169.1,100.1,167.9,99.7,166.7,99.1z M155.5,109.4
						c0.3,0.1,0.5,0.1,0.7,0.2c0.6,0.2,1,0.7,0.9,1.3c0,0.6-0.4,1-1,1.1c-0.7,0.1-1.1-0.2-1.4-0.8c-0.1-0.2,0.1-0.6-0.4-0.5
						c-0.4,0.1-0.4,0.4-0.4,0.8c0.1,0.6,0.7,1,0.7,1.6c0,0.5,0.3,0.6,0.7,0.6c1.6,0.1,2.7-0.7,3.7-1.8c0.4-0.5,0.7-0.8-0.3-1
						c-0.6-0.1-1.2-0.5-1.5-1c-0.4-0.5-0.7-1.1-1.1-1.7C155.9,108.6,155.7,109,155.5,109.4z M184,77c0.3,0.4,0,1.1,0.7,1.3
						c1.3,0.3,2.5,0.6,3.9,0.6c1.4-0.1,1.7-0.5,1.4-1.8c-0.1-0.3-0.2-0.7-0.3-1s-0.3-0.3-0.5-0.1C187.7,77.3,186,77.6,184,77z
						 M164.3,116.1c1.3,0,2.5-0.6,3.6-0.9c0.3-0.1,0.4-0.5,0.3-0.7c-0.1-0.3-0.4-0.1-0.6-0.1c-1.5,0.1-2.8-0.2-4-1.2
						c-0.1-0.1-0.4-0.5-0.5-0.1c-0.4,0.8-0.7,1.6-0.4,2.5C163,116.1,163.8,116,164.3,116.1z M169.7,87.9c0.1,0.1,0.2,0.2,0.2,0.3
						c0.5,0.5,0.5,1.1,0.1,1.7c-0.4,0.5-0.9,0.6-1.5,0.3c-0.7-0.3-0.8-1-0.5-1.6c0.3-0.7-0.2-0.6-0.5-0.6c-1.8-0.2-1.8-0.2-1.4,1.4
						c0,0.1,0.1,0.3,0.1,0.4c0,0.7,0.4,1,1,1.1c0.5,0,0.9,0.2,1.4,0.2c2,0,2.5-0.5,2.4-2.4v-0.1C170.9,87.2,170.9,87.2,169.7,87.9z
						 M158.8,93.8c-0.1,1-0.2,1.9-0.3,2.7c0,0.4-0.1,0.8-0.1,1.3c0,0.3,0,0.4,0.3,0.6c0.7,0.5,1.5,0.9,2.3,0.9
						c0.5,0,0.6-0.2,0.6-0.6c0-1.2,0.1-2.5,0.1-3.7c0-0.4-0.1-0.6-0.6-0.5C160.3,94.5,159.6,94.3,158.8,93.8z M164.2,110.4
						c-0.9,1.8-0.8,2.1,0.9,2.8c0.6,0.2,1.2,0.4,1.8,0.4c1.6,0.1,2-0.3,2.1-2.1C167.2,112.1,165.5,112,164.2,110.4z M165.1,85.8
						c0.3,0.7,0.1,1.5,0.9,1.7c1.1,0.2,2.3,0.4,3.5,0.1c0.4-0.1,0.8-0.2,1-0.5c0.5-0.5,0.2-1,0.1-1.6c0-0.2-0.2-0.2-0.4-0.1
						C168.7,86.1,167,86.2,165.1,85.8z M155.3,88.8c0.2,0.5,0.1,0.9,0,1.2c-0.1,0.5-0.1,0.9,0.5,1c0.5,0.1,1,0,1-0.7
						c0.1-0.5,0.2-1,0.3-1.5c0-0.3,0.2-0.7-0.3-0.8c-0.4-0.1-0.8-0.4-1.1,0.2c-0.3,0.5-0.8,0.7-1.4,0.4c-0.5-0.2-0.6,0-0.8,0.3
						c-0.4,0.7-0.1,1.2,0.3,1.7c0.3,0.4,0.8,0.3,0.9-0.3C154.8,89.7,154.9,89.3,155.3,88.8z M142.9,80.5c0-0.8-0.7-2.3-1-2.3
						c-1.4,0-1.7,0.3-1.7,1.5c0,1.1,0.7,2,1.6,2C142.5,81.6,142.9,81.2,142.9,80.5z M141.3,77.5c0.8,0,1.5-0.5,1.9-1.3
						c0.2-0.4,0.1-0.7-0.3-0.8c-0.3-0.1-0.7-0.7-1.1,0.1c-0.3,0.8-1,1.1-1.8,0.7s-0.9-1.1-0.5-1.8c0.1-0.2,0.3-0.5-0.1-0.6
						c-0.3-0.2-0.5,0-0.6,0.3C138.1,75.5,139.3,77.5,141.3,77.5z M159.6,110.2c0.9-0.1,0.7-1,1-1.7c0.2-0.5,0.1-0.7-0.5-0.6
						c-1,0.2-1.9,0-2.7-0.6c-0.2-0.2-0.4-0.7-0.8-0.4c-0.4,0.3-0.1,0.7,0.2,1c0.4,0.5,0.7,1,1.1,1.5
						C158.3,109.9,158.8,110.1,159.6,110.2z M187.1,93.3c-0.1,1.6-0.1,1.6,1.3,1.8c0.3,0,0.5,0.1,0.8,0.1c1.1,0,2.2-0.2,3.2-0.8
						c0.4-0.2,0.4-0.6,0.3-0.9c-0.1-0.3-0.3-0.1-0.5,0C190.5,94.2,188.8,94.1,187.1,93.3z M150.8,80.3c3.4-0.3,5.5,1.3,7,4.1
						c-0.1-0.9-0.4-1.7-0.7-2.6c-0.3-0.7-0.7-1.2-1.5-1.3c-1.1-0.2-2.1-0.6-3.2-1C151.4,79,150.9,79.2,150.8,80.3z M150.1,81.3
						c3.8-0.1,6.1,1.7,7.5,5.3c-0.3-3.7-3.1-6.2-6.5-6C150.6,80.6,150.2,80.7,150.1,81.3z M136.2,78.9c-0.1,0.8,0.4,1.2,1.2,1
						c0.9-0.2,1.6-0.8,2.1-1.5c0.1-0.2,0.3-0.4,0-0.6c-0.5-0.2-0.6-1-1.2-0.7C137.4,77.5,136.4,77.8,136.2,78.9z M155,85.6
						c0.6,0.3,0.7,0.9,0.9,1.3c0.2,0.3,0.6,0.6,0.9,0.4c0.4-0.1,0.2-0.5,0.1-0.8c-0.1-0.5-0.3-1-0.5-1.5c-0.1-0.2-0.2-0.5-0.4-0.3
						c-0.5,0.4-1.9-0.2-1.6,1.3c0.1,0.2-0.2,0.5-0.4,0.6c-0.5,0.2-0.5,0.4-0.2,0.8s0.7,0.9,1.3,0.6c0.4-0.2,0.5-0.6,0.3-1
						C155.3,86.7,154.9,86.3,155,85.6z M159,87.2c0.5-0.4,1-0.4,1.5-0.5c0.6-0.1,0.6-0.4,0.5-0.8c-0.1-0.2-0.1-0.5-0.4-0.4
						c-0.6,0.2-1.3-0.1-1.9,0c0,0,0,0.2,0,0.3c0.1,1.1,0.2,2.2,0.4,3.5c0.7-1.1,1.5-0.9,2.3-0.4c0-1.7,0-1.7-1.6-1.5
						C159.5,87.5,159.2,87.6,159,87.2z M98.8,82.2c1,0.2,1.7,0.3,2.5,0.5c0.3,0.1,0.5,0,0.6-0.3c0.6-1.3-0.1-2.9-1.6-3.3
						C100.8,80.5,100.1,81.4,98.8,82.2z M136.3,76.8c0.3-0.1,0.7-0.2,1.2-0.2c0.5-0.1,0.7-0.3,0.5-0.8c-0.2-0.9-1-0.8-1.6-1.1
						c-0.6-0.2-1.2-0.1-1.7,0.4c-0.4,0.4-0.3,0.8,0.1,1.2C135.2,76.7,135.7,76.8,136.3,76.8z M175.3,83.3c0,0.6-0.2,1.2,0.3,1.6
						c0.7,0.5,3.3,0.1,3.9-0.5c0.3-0.4,0.2-0.8,0-1.1c-0.2-0.3-0.5,0-0.7,0.1C177.7,83.8,176.5,83.9,175.3,83.3z M176.3,108.7
						c1.3-0.1,2.4-0.2,3.4-0.7c0.3-0.2,0.4-0.4,0.4-0.7c-0.1-0.4-0.4-0.1-0.6-0.1c-1.3,0.3-2.6,0.4-4,0.2c-0.5-0.1-0.8-0.1-0.9,0.5
						c-0.1,0.7,0.2,0.7,0.7,0.7C175.6,108.6,176,108.7,176.3,108.7z M166.8,97.3c0,0.6-0.4,1.1,0.2,1.4c1.1,0.6,2.3,0.8,3.5,0.6
						c0.7-0.1,0.4-0.7,0.5-1.1c0.1-0.6-0.4-0.4-0.7-0.3C169.1,98,168,97.9,166.8,97.3z M144.9,80.3c0.5,0,0.9-0.1,1-0.6
						c0.2-0.5-0.1-0.9-0.4-1.1c-0.5-0.3-1-0.7-1.4-1.2c-0.1-0.2-0.3-0.5-0.5-0.3c-0.3,0.1-0.6,0.4-0.6,0.7
						C142.7,78.7,144,80.3,144.9,80.3z M175.4,99.6c0.2,0.6-0.5,1.4,0.3,1.6c1.4,0.4,2.9,0.3,4.3-0.2c0.4-0.1,0.4-0.4,0.3-0.7
						c-0.1-0.4-0.3-0.2-0.5-0.2C178.4,100.3,176.9,100.2,175.4,99.6z M143.4,85.6c-0.7-0.2-1,0-0.7,0.7c0.1,0.3,0.2,0.7,0.3,1
						c0,0.2,0,0.4-0.2,0.5s-0.4-0.1-0.4-0.3c-0.1-0.4-0.2-0.9-0.3-1.3c0-0.2-0.1-0.5-0.4-0.5c-0.4,0-0.2,0.3-0.2,0.5
						c0,0.3,0,0.7,0,1s0.1,0.8-0.3,0.8c-0.4,0-0.3-0.5-0.4-0.8c0-0.5,0-1,0-1.4c-0.1,1-0.1,1.9-0.2,2.9c0,0.3,0.1,0.7,0.5,0.4
						c0.8-0.6,1.5-0.6,2.4-0.4c0.3,0.1,0.5-0.1,0.5-0.4c0-0.2,0.1-0.5-0.1-0.5c-1.1-0.2-0.7-1.2-1-1.8
						C142.7,85.6,143.2,85.8,143.4,85.6z M163.1,80.7c0.3,0.7,0.2,1.3,1,1.4c1.9,0.1,3.6-0.1,5.3-1c0.6-0.3,0.6-0.3,0.3-1.1
						C167.8,81.4,165.6,81.7,163.1,80.7z M187.6,101.7c0.1,0.7-0.2,1.3,0.3,1.6c1,0.6,4,0,4.6-0.9c0.1-0.2,0.2-0.4,0.1-0.5
						c-0.1-0.2-0.3-0.1-0.5,0C190.7,102.7,189.2,102.6,187.6,101.7z M90.6,74.4c2.6-0.3,5,0.7,7.4,0.1c-0.7-0.2-1.5-0.6-2.2-0.4
						c-1,0.3-1.7-0.2-2.4-0.5C92.2,72.9,91.3,73.2,90.6,74.4z M154.8,83.1c-1.7-1.2-3.2-1.7-5-1.3c-0.5,0.1-1.1,0.6-0.9,1
						c0.2,0.5,0.9,0.7,1.6,0.4c0.3-0.1,0.4-0.3,0.5-0.6c0-0.1,0-0.4,0.1-0.3c0.7,0.2,1.6-0.2,2.1,0.4
						C153.6,83.3,154,83.2,154.8,83.1z M161.4,100.8c0.1-0.5,0-0.8-0.6-0.8s-1.2-0.2-1.8-0.5c-0.2-0.1-0.5-0.5-0.7-0.3
						c-0.3,0.2-0.2,0.7-0.2,1s0.2,0.4,0.4,0.5c0.6,0.5,1.4,0.7,2.1,0.9C161.2,101.7,161.5,101.5,161.4,100.8z M86.9,84.3
						c0.8-0.5,1.5-0.9,2.3-1c0.4-0.1,0.7-0.2,0.7-0.7s-0.2-0.8-0.7-1c-0.7-0.2-1.3,0.1-1.7,0.7C87.1,82.8,87,83.5,86.9,84.3z
						 M135.9,72.3c-0.4,0-0.8-0.1-0.9,0.4c-0.1,0.4,0.3,0.6,0.6,0.7c0.7,0.3,1.4,0.7,2.1,1c0.7,0.3,0.5-0.5,0.8-0.7s0.3-0.5-0.1-0.7
						C137.5,72.7,136.7,72.4,135.9,72.3z M152,84.4c-0.6-0.2-0.8,0.2-0.8,0.8c-0.1,0.5,1.2,1.3,1.9,1.3c0.5,0,0.9-0.1,1-0.7
						C154.1,85.1,153.2,84.4,152,84.4z M153.7,90.9c0.3,0.4,0.1,1,0.8,1.2c0.5,0.1,0.9-0.5,1.5-0.4c-0.3,0.7-0.8,0.9-1.4,0.8
						c-0.6-0.1-0.8,0.1-0.9,0.6c-0.1,0.3-0.2,0.6-0.4,1.1c1.5-0.4,2.4-1.4,3-2.6C155.4,91.2,154.7,90.8,153.7,90.9z M170.4,103.8
						c-1.3,0.7-2.7,0.7-4,0.1c-0.2-0.1-0.4-0.2-0.5,0.1c-0.1,0.3-0.1,0.6,0.3,0.8c1.1,0.4,2.1,0.5,3.2,0.4
						C170.1,105.1,170.6,104.8,170.4,103.8z M175.7,91.3c-0.3,0.9,0,1.2,0.8,1.2c1,0.1,2,0.1,2.9-0.1s0.9-0.2,0.5-1.2
						C178.6,92,177.2,92,175.7,91.3z M107.2,76.5c0.4-1.5,0.5-2.8,1-4.1c0.1-0.2,0.2-0.5-0.2-0.7c-0.3-0.1-0.5,0.1-0.6,0.3
						c-0.4,0.5-0.3,1-0.4,1.6c0,0.3,0.1,0.9-0.3,0.9c-0.7,0.1-0.4,0.4-0.2,0.8C106.8,75.6,106.9,76,107.2,76.5z M99.9,70.7
						c0.3,1.9-0.9,2.5-2.4,3.1c2,0.7,2.3,0.1,2.9-0.8C101,72.1,100.8,71.4,99.9,70.7z M176.3,77.3c0.9,0,1.5-0.1,2-0.4
						c0.4-0.2,0.3-0.4,0.3-0.7c-0.1-0.4-0.3-0.2-0.5-0.1c-1,0.3-2.1,0.5-3.2,0.3c-0.2,0-0.5-0.2-0.5,0.2c0,0.3,0.1,0.4,0.4,0.5
						C175.3,77.1,175.9,77.2,176.3,77.3z M161.5,90.2c-1.1,0.9-1.5,0.9-2.6,0c0,0.6-0.2,1.1,0.5,1.5c0.6,0.3,1.3,0.7,1.9,0.4
						C161.9,91.7,161.4,90.9,161.5,90.2z M92.2,72.7c-1.8-0.5-3.5-0.2-4.5,0.8c0.8-0.2,1.6-0.2,2.3,0.1c0.2,0.1,0.4,0.1,0.5-0.1
						C90.9,73.2,91.5,72.9,92.2,72.7z M152.2,88.9c0.6,0.1,0.9,0,1.1-0.5c0.2-0.5,0-1-0.3-1.4c-0.1-0.2-0.6-0.4-0.8,0.2
						c-0.1,0.4-0.4,0.6-0.8,0.8c-0.2,0.1-0.5,0.1-0.4,0.3c0,0.2,0.2,0.5,0.5,0.6C151.7,88.8,152,88.9,152.2,88.9z M158.3,83.8
						c0.1,0.7,0.1,1.2,0.8,1.3c0.5,0.1,1.2,0.3,1.5-0.2c0.3-0.6-0.2-1.2-0.4-2.1C159.7,83.7,159.1,83.9,158.3,83.8z M159.8,81.6
						c-0.4-0.8-0.5-1.7-1-1.8c-0.5-0.1-1.2,0.3-1.6,0.8c-0.3,0.4,0.2,0.9,0.5,1.4C158.2,81.4,158.9,81.2,159.8,81.6z M160.8,93.8
						c0.3-0.1,0.8,0.1,0.8-0.6s-0.5-0.5-0.8-0.5c-0.5-0.1-1-0.2-1.4-0.5c-0.5-0.3-0.6-0.1-0.6,0.4C158.8,93.3,159.5,93.8,160.8,93.8
						z M156,79.3c0.3,0.6,0.7,0.9,1.2,0.6c0.4-0.2,1-0.3,1.1-0.7c0-0.6-0.6-0.9-1.1-1.4C157.1,78.6,156.7,79.1,156,79.3z M86.2,75.5
						c1.3-0.7,2.6-0.9,3.9-1.2C88.5,73.4,87.2,73.8,86.2,75.5z M153.1,84.3c0.6,0.4,1.3,0.4,2,0.4c0.2,0,0.4-0.1,0.5-0.4
						c0.1-0.2-0.1-0.4-0.2-0.5C154.8,83.2,153.7,83.4,153.1,84.3z M177.9,75.2c-1.3-0.8-2.8-0.5-3.4,0.5
						C175.7,75.8,176.7,75.7,177.9,75.2z M146.9,85.8c0.5-0.1,0.9-0.4,0.8-0.9c0-0.4-0.4-0.8-0.8-0.7c-0.4,0.1-1.2,0.3-1.1,0.8
						C145.8,85.4,146.3,85.8,146.9,85.8z M151.8,82.6c-0.7-0.1-1,0.5-1,0.9c0,0.6,0.6,0.5,1,0.5c0.5,0,1.1,0,1.1-0.6
						C153,82.7,152.3,82.7,151.8,82.6z M147.5,77.5c-1.2-0.6-2.3-1.1-3.4-1.6C145.2,77.7,146.2,78.2,147.5,77.5z M149,87
						c0.6,0.5,1.2,0.6,1.8,0.6c0.4,0,0.8-0.1,1-0.5c0.2-0.5-0.3-0.6-0.5-0.8c-0.5-0.4-0.6-0.1-0.9,0.2C150.1,86.9,149.6,86.9,149,87
						z M155.7,80.1c-1-1.3-2.1-1.7-3.5-1.2C153.4,79.3,154.5,79.7,155.7,80.1z M154.7,78.4c-0.1-0.7,0.2-1.2,0.8-1.8
						c-0.7-0.1-1.3-0.6-1.6-0.1C153.5,77.3,154.1,77.9,154.7,78.4z M146.3,86.3c0.4,0.5,0.7,0.7,1.1,1c0.2,0.1,0.5,0.4,0.8,0.1
						c0.2-0.2,0.4-0.5,0.2-0.8s-0.4-0.6-0.9-0.4C147.2,86.3,146.8,86.3,146.3,86.3z M153.4,113c-0.3-1.8-0.3-1.8-1.7-2
						C152.1,111.8,152.7,112.4,153.4,113z M150.1,85.9c0-0.2-1.4-1.1-1.6-1c-0.2,0.1-0.3,0.2-0.3,0.4c0,0.6,1.1,1.3,1.6,1
						C150,86.2,150.1,86.1,150.1,85.9z M135.4,71.7c-0.7-0.3-1.1-0.8-1.6-0.2c-0.4,0.5-0.2,1,0.3,1.4
						C134.4,72.3,134.7,71.9,135.4,71.7z M148.6,84.4c0.3,0,0.6-0.1,0.6-0.5c-0.1-0.4-0.4-0.8-0.8-0.8c-0.3,0-0.7,0.3-0.7,0.6
						C147.8,84.1,148.1,84.4,148.6,84.4z M105.9,73.5c-0.1-0.7-0.6-0.9-1-1.2c-0.2-0.2-0.5-0.2-0.7,0s-0.1,0.5,0.1,0.7
						C104.8,73.3,105.3,73.4,105.9,73.5z M149.9,83.6c-0.3,0.1-0.4,0.5-0.3,0.7c0,0.5,0.6,0.6,0.9,0.7c0.3,0.1,0.4-0.2,0.4-0.5
						C150.8,84,150.3,83.9,149.9,83.6z"/>
					<path d="M114.2,98.4c-0.1-0.4,0.1-0.7,0.3-1c0.7-1.4,1.7-2.5,2.9-3.6c1.5-1.3,2.8-1.3,4.4-0.1c0.9,0.7,1.7,1.4,2.8,1.7
						c1.3,0.3,2.3-0.1,2.9-1.3c-0.1-0.3-0.3-0.1-0.5-0.1c-0.6-0.1-0.9-0.4-0.9-1s0.4-1,1-1c2.3,0,3,1.4,2.4,3.2
						c-0.7,2-2.3,3-4.3,3.2c-1.7,0.2-3.3-0.1-5-0.5s-3.4-0.4-5.2-0.1C114.8,98,114.6,98.3,114.2,98.4z M126.8,97
						c-0.6,0.6-1.2,0.4-1.9,0.1c-0.6-0.2-1.2-0.6-1.8-0.3c-0.7,0.3-1,0.4-1.3-0.4c-0.1-0.4-0.6-0.5-1-0.4c-0.5,0.1-0.7,0.4-0.9,0.8
						c-0.1,0.3-0.1,0.6,0.3,0.6c1.7,0.3,3.3,0.7,5.1,0.5c1.8-0.2,3.2-1.2,3.9-2.9c0.4-0.9,0.1-1.6-0.6-2c0.1,2.5-1.7,4-4.1,3.3
						c-0.7-0.2-1.4-0.6-2-1.1c-0.5-0.4-0.9-0.8-1.4-1.2c-0.8-0.6-1.7-0.6-2.5-0.1c-1.4,0.8-2.3,2.2-3.3,3.6c1,0,1.3-0.6,1.6-1.2
						c0.6-1.3,1.4-1.4,2.4-0.3c0.4,0.5,0.5,0.4,0.9,0c0.5-0.5,1.2-0.6,1.7-0.1c0.6,0.5,1.1,0.6,1.8,0.5c0.2,0,0.5,0.1,0.8,0.2
						C125.1,96.8,125.9,97.1,126.8,97z M116.9,97.2c0.6,0,1.3,0,1.9,0c0.2,0,0.5,0.1,0.4-0.2c-0.2-0.6-0.5-1.2-1.1-1.4
						c-0.6-0.2-0.9,0.2-1,0.7C117,96.5,116.8,96.8,116.9,97.2z"/>
					<path d="M138,96.3c-0.1,0.5-0.3,0.7-0.8,0.7s-0.8-0.4-0.7-0.9c0-0.5,0.4-0.7,0.8-0.6C137.8,95.6,138,95.9,138,96.3z"/>
					<path d="M138.6,94.5c-0.1,0.5-0.3,0.7-0.7,0.6c-0.4,0-0.6-0.3-0.6-0.6c0-0.4,0.3-0.7,0.7-0.6C138.3,93.8,138.5,94.1,138.6,94.5
						z"/>
					<path d="M137.3,98.1c0,0.3-0.2,0.5-0.5,0.6c-0.3,0-0.6-0.1-0.6-0.5c-0.1-0.4,0.2-0.6,0.5-0.7C137.1,97.6,137.3,97.8,137.3,98.1
						z"/>
					<path d="M183.8,100.9c1.3-5.9,1.8-11.8,0.8-17.8c1.6,6.6,0.7,13.2-0.8,19.7c-0.6-2.6-0.3-5.3-0.2-7.9c0.2-2.7,0.3-5.3,0-8
						C184.5,91.5,183.6,96.2,183.8,100.9z"/>
					<path d="M163.6,88.8c2.1,8.7,0.2,16.8-3,24.9C163.4,105.6,165.3,97.4,163.6,88.8z"/>
					<path d="M171,109.1c1.9-7.8,3.6-15.7,2.5-23.8C174.9,93.5,173.2,101.3,171,109.1z"/>
					<path d="M192.8,81.4c1.5,2.2,2.1,4.7,2.2,7.3c0.1,1.9,0,3.7-0.1,5.6c-0.2,3.2-0.5,6.4,0,9.8c-0.5-0.7-0.7-1.9-0.8-3.6
						c-0.1-2.5,0.2-4.9,0.4-7.3C194.9,89,194.9,85.1,192.8,81.4z"/>
					<path d="M42.6,88.7c0.2-0.1,0.2-0.4,0.3-0.6c0.3-0.6,0.8-0.8,1.5-0.7c0.5,0.1,0.9,0.4,1,1s-0.1,1-0.7,1.3
						C44,90,43.5,89.9,43,89.4C42.9,89.2,42.7,88.9,42.6,88.7L42.6,88.7z"/>
					<path d="M46.6,109.3c0,0.7-0.6,1.4-1.2,1.3c-0.7-0.1-1.2-0.5-1.2-1.3c0-0.7,0.6-1.3,1.2-1.2C46.1,108.2,46.5,108.6,46.6,109.3z
						"/>
					<path d="M44.7,114c-0.7,0-1.2-0.6-1.2-1.3c0-0.7,0.6-1.3,1.2-1.2c0.7,0.1,1.1,0.5,1.2,1.2C45.9,113.4,45.4,114,44.7,114z"/>
					<path d="M45.9,106.6c-0.7,0-1.3-0.5-1.2-1.2c0-0.7,0.6-1.2,1.3-1.2s1.1,0.5,1.2,1.2C47.2,106.1,46.6,106.6,45.9,106.6z"/>
					<path d="M46.6,92.4c-0.1,0.7-0.4,1.2-1.1,1.2c-0.7,0-1.2-0.5-1.2-1.2s0.4-1.2,1.2-1.2C46.2,91.2,46.5,91.7,46.6,92.4z"/>
					<path d="M191,90.4c0,0.7-0.6,1.2-1.3,1.2s-1.3-0.6-1.2-1.3c0.1-0.7,0.5-1.1,1.2-1.1S191,89.7,191,90.4z"/>
					<path d="M166.5,77.5c0.7,0,1.1,0.4,1.1,1.2c0,0.7-0.4,1.2-1.2,1.2s-1.2-0.4-1.3-1.2C165.2,78,165.7,77.5,166.5,77.5z"/>
					<path d="M191.6,98.6c-0.1,0.6-0.4,1-1.2,1.1c-0.7,0.1-1.4-0.6-1.4-1.3c0.1-0.7,0.5-1.1,1.2-1.2C191,97.2,191.6,97.8,191.6,98.6
						z"/>
					<path d="M179.2,96.8c-0.1,0.7-0.5,1.2-1.2,1.2s-1.2-0.6-1.1-1.3c0.1-0.7,0.5-1.1,1.2-1.1C178.8,95.6,179.1,96.1,179.2,96.8z"/>
					<path d="M190.2,108.6c-0.7,0-1.1-0.5-1.2-1.2c-0.1-0.7,0.5-1.4,1.2-1.3c0.8,0,1.2,0.5,1.2,1.3C191.5,108,191,108.6,190.2,108.6
						z"/>
					<path d="M131.7,71.8c-1.6-0.1-3.2-0.2-4.9-0.3c0.1-0.5,0.4-0.4,0.7-0.5c1.3-0.1,2.5,0.2,3.7,0.4
						C131.5,71.4,131.6,71.5,131.7,71.8L131.7,71.8z"/>
					<path d="M131.9,70.4c0.1,0.2,0.4,0.5-0.1,0.5c-1.5-0.2-3.1-0.4-4.6-0.7C128.8,69.8,130.3,70.3,131.9,70.4L131.9,70.4z"/>
					<path d="M130.9,72.4c-1.2,0-2.1,0-3.1,0c-0.2,0-0.3-0.1-0.5-0.1C128.1,71.8,129.4,71.8,130.9,72.4z"/>
					<path d="M178.2,111.9c-0.1,0.7-0.5,1.1-1.3,1.1c-0.7,0-1.3-0.6-1.2-1.3c0.1-0.8,0.6-1.1,1.3-1.1
						C177.7,110.5,178.2,111.1,178.2,111.9z"/>
					<path d="M189.6,82.1c0,0.7-0.6,1.2-1.3,1.2s-1.3-0.6-1.2-1.3c0.1-0.7,0.5-1.1,1.2-1.2C189,80.8,189.6,81.4,189.6,82.1z"/>
					<path d="M130.3,74.5c-1.3,0.2-2.6,0.3-3.9,0.5c0-0.1,0-0.2,0-0.3c1.3-0.5,2.6-0.5,3.9-0.5C130.3,74.3,130.3,74.4,130.3,74.5z"
						/>
					<path d="M126.8,77.3c1-0.8,2.2-1.1,3.4-1.6C129.7,76.4,127.9,77.3,126.8,77.3z"/>
					<path d="M167.6,107.4c0.7,0.1,1,0.5,1.1,1.2c0,0.7-0.5,1.2-1.2,1.2c-0.8,0-1.1-0.5-1.1-1.2
						C166.3,107.9,166.9,107.4,167.6,107.4z"/>
					<path d="M170.5,95.5c0,0.7-0.6,1.2-1.3,1.2s-1.2-0.4-1.2-1.1c-0.1-0.7,0.5-1.2,1.2-1.3C169.9,94.3,170.5,94.8,170.5,95.5z"/>
					<path d="M177.7,103.2c0.7,0,1.3,0.5,1.3,1.2s-0.6,1.2-1.3,1.2s-1.2-0.4-1.2-1.1C176.4,103.7,177,103.2,177.7,103.2z"/>
					<path d="M177.6,89.7c-0.7,0-1.3-0.5-1.3-1.2s0.5-1.2,1.2-1.2s1.2,0.4,1.2,1.1C178.8,89,178.3,89.6,177.6,89.7z"/>
					<path d="M188.1,74.7c-0.1,0.6-0.5,1.1-1.3,1.1c-0.7,0-1.3-0.6-1.2-1.2c0.1-0.7,0.5-1.2,1.3-1.2
						C187.5,73.3,188.1,73.9,188.1,74.7z"/>
					<path d="M175.9,80.6c0-0.8,0.5-1.4,1.2-1.3c0.8,0.1,1.2,0.5,1.2,1.3c0,0.7-0.6,1.3-1.2,1.2C176.3,81.7,175.9,81.3,175.9,80.6z"
						/>
					<path d="M169.4,83.6c0,0.7-0.6,1.3-1.3,1.3s-1.3-0.6-1.2-1.2c0-0.8,0.5-1.2,1.2-1.3C168.8,82.3,169.4,82.9,169.4,83.6z"/>
					<path d="M160.2,104.7c0,0.6-0.4,1.1-1.1,1.2c-0.7,0.1-1.4-0.6-1.4-1.3c0-0.7,0.4-1.2,1.2-1.2
						C159.6,103.3,160.2,103.9,160.2,104.7z"/>
					<path d="M168.5,103c-0.7-0.1-1.1-0.5-1.1-1.2s0.6-1.3,1.2-1.2c0.7,0.1,1.1,0.6,1.1,1.3C169.7,102.5,169.3,102.9,168.5,103z"/>
					<path d="M133.5,82.5c0.4,1.1-0.7,1.2-1.1,1.7C132.3,83.3,133.2,83.1,133.5,82.5L133.5,82.5z"/>
					<path d="M161.2,96.6c0,0.7-0.6,1.3-1.3,1.2c-0.7-0.1-1.2-0.5-1.2-1.3c0-0.7,0.6-1.2,1.3-1.2C160.8,95.4,161.2,95.9,161.2,96.6z
						"/>
					<path d="M139.3,85.5c0,0.1,0.1,0.2,0.1,0.4c0.1,0.5,0.4,0.9,0,1.4c0,0-0.2,0-0.2-0.1C139.1,86.6,138.7,86,139.3,85.5
						C139.4,85.5,139.3,85.5,139.3,85.5z"/>
				</g>
			</g>
		</g>
	</g>
</g>
</svg>
